<svg width="30" height="31" viewBox="0 0 30 31" fill="none" xmlns="http://www.w3.org/2000/svg">
<path fill-rule="evenodd" clip-rule="evenodd" d="M8.9425 0.696116C10.528 0.623446 11.0333 0.606934 15.0705 0.606934C19.1084 0.606934 19.6129 0.62427 21.1976 0.696116C22.7805 0.767961 23.8615 1.01982 24.807 1.38728C25.7987 1.76064 26.697 2.34563 27.4395 3.10156C28.1955 3.84397 28.7806 4.74236 29.1538 5.73408C29.5212 6.67957 29.7723 7.7605 29.845 9.34264C29.9177 10.9281 29.9342 11.4335 29.9342 15.4706C29.9342 19.5077 29.9169 20.0131 29.845 21.5986C29.7731 23.1807 29.5212 24.2617 29.1538 25.2071C28.774 26.1841 28.2652 27.0139 27.4395 27.8396C26.6971 28.5957 25.7987 29.1807 24.807 29.554C23.8615 29.9214 22.7805 30.1724 21.1985 30.2451C19.6129 30.3178 19.1076 30.3343 15.0705 30.3343C11.0333 30.3343 10.528 30.317 8.9425 30.2451C7.36035 30.1732 6.27943 29.9214 5.33393 29.554C4.35705 29.1741 3.52717 28.6654 2.70141 27.8396C1.94535 27.0973 1.36032 26.1988 0.98713 25.2071C0.619673 24.2617 0.368639 23.1807 0.295969 21.5986C0.223299 20.0131 0.206787 19.5085 0.206787 15.4706C0.206787 11.4327 0.224124 10.9281 0.295969 9.34348C0.367815 7.7605 0.619673 6.67957 0.98713 5.73408C1.36049 4.74243 1.94549 3.84408 2.70141 3.10156C3.44381 2.3455 4.3422 1.76046 5.33393 1.38728C6.27943 1.01982 7.36035 0.768786 8.9425 0.696116ZM21.077 3.37158C19.5097 3.30056 19.0391 3.28487 15.0705 3.28487C11.1019 3.28487 10.6312 3.30056 9.06389 3.37158C7.61468 3.43764 6.82773 3.67958 6.30419 3.88355C5.61056 4.15275 5.1151 4.47479 4.59487 4.99502C4.07548 5.51525 3.7526 6.01071 3.4834 6.70434C3.27943 7.22788 3.03749 8.01483 2.97143 9.46404C2.90041 11.0313 2.88472 11.502 2.88472 15.4706C2.88472 19.4392 2.90041 19.9099 2.97143 21.4772C3.03749 22.9264 3.27943 23.7133 3.4834 24.2369C3.72152 24.8826 4.10133 25.4666 4.59487 25.9463C5.07443 26.4397 5.65853 26.8196 6.30419 27.0577C6.82773 27.2617 7.61468 27.5036 9.06389 27.5697C10.6312 27.6407 11.101 27.6564 15.0705 27.6564C19.0399 27.6564 19.5097 27.6407 21.077 27.5697C22.5262 27.5036 23.3132 27.2617 23.8368 27.0577C24.5304 26.7885 25.0259 26.4665 25.5461 25.9463C26.0396 25.4667 26.4194 24.8826 26.6575 24.2369C26.8616 23.7133 27.1034 22.9264 27.1695 21.4772C27.2406 19.9099 27.2563 19.4392 27.2563 15.4706C27.2563 11.502 27.2406 11.0313 27.1695 9.46404C27.1034 8.01483 26.8616 7.22788 26.6575 6.70434C26.3884 6.01071 26.0664 5.51525 25.5461 4.99502C25.0259 4.47563 24.5304 4.15275 23.8368 3.88355C23.3132 3.67958 22.5262 3.43764 21.077 3.37158ZM13.1726 20.0525C13.7744 20.3019 14.4192 20.4301 15.0705 20.4301C16.3859 20.4301 17.6473 19.9076 18.5774 18.9775C19.5075 18.0474 20.0301 16.7859 20.0301 15.4706C20.0301 14.1553 19.5075 12.8938 18.5774 11.9637C17.6473 11.0336 16.3859 10.5111 15.0705 10.5111C14.4192 10.5111 13.7744 10.6394 13.1726 10.8886C12.5708 11.1379 12.0241 11.5032 11.5636 11.9637C11.1031 12.4242 10.7377 12.971 10.4885 13.5727C10.2393 14.1744 10.111 14.8193 10.111 15.4706C10.111 16.1219 10.2393 16.7669 10.4885 17.3686C10.7377 17.9703 11.1031 18.517 11.5636 18.9775C12.0241 19.438 12.5708 19.8034 13.1726 20.0525ZM9.66826 10.0684C11.101 8.63559 13.0443 7.83067 15.0705 7.83067C17.0968 7.83067 19.04 8.63559 20.4727 10.0684C21.9055 11.5011 22.7104 13.4444 22.7104 15.4706C22.7104 17.4968 21.9055 19.44 20.4727 20.8729C19.04 22.3056 17.0968 23.1105 15.0705 23.1105C13.0443 23.1105 11.101 22.3056 9.66826 20.8729C8.2355 19.44 7.43058 17.4968 7.43058 15.4706C7.43058 13.4444 8.2355 11.5011 9.66826 10.0684ZM24.4045 8.96894C24.7431 8.63025 24.9333 8.17091 24.9333 7.69195C24.9333 7.21298 24.7431 6.75363 24.4045 6.41496C24.0657 6.07628 23.6064 5.88601 23.1274 5.88601C22.6485 5.88601 22.1891 6.07628 21.8505 6.41496C21.5117 6.75363 21.3215 7.21298 21.3215 7.69195C21.3215 8.17091 21.5117 8.63025 21.8505 8.96894C22.1891 9.30762 22.6485 9.49789 23.1274 9.49789C23.6064 9.49789 24.0657 9.30762 24.4045 8.96894Z" fill="black"/>
</svg>
