<svg width="33" height="33" viewBox="0 0 33 33" fill="none" xmlns="http://www.w3.org/2000/svg">
<g clip-path="url(#clip0_23_4944)">
<path d="M29.5118 1.01574H3.16258C2.56473 1.00966 1.98889 1.24099 1.5614 1.65898C1.13392 2.07696 0.889705 2.64746 0.882355 3.24529V29.701C0.891034 30.2979 1.13583 30.8671 1.56317 31.284C1.99051 31.7009 2.5656 31.9315 3.16258 31.9254H29.5118C30.1097 31.9302 30.6852 31.6981 31.1124 31.2798C31.5397 30.8616 31.784 30.2912 31.7921 29.6934V3.23769C31.7814 2.64161 31.5359 2.07383 31.1089 1.65777C30.6819 1.2417 30.108 1.01097 29.5118 1.01574Z" fill="#1F1B28"/>
<path d="M5.45804 12.6018H10.0464V27.365H5.45804V12.6018ZM7.75346 5.25439C8.27972 5.25439 8.79416 5.41048 9.23169 5.70291C9.66922 5.99533 10.0102 6.41096 10.2115 6.8972C10.4127 7.38345 10.4653 7.91847 10.3624 8.43458C10.2596 8.95069 10.006 9.4247 9.63365 9.79664C9.26136 10.1686 8.78711 10.4217 8.2709 10.5241C7.75469 10.6265 7.21972 10.5734 6.73367 10.3717C6.24761 10.17 5.83231 9.82858 5.5403 9.39077C5.2483 8.95296 5.0927 8.43838 5.0932 7.91212C5.09387 7.20702 5.37445 6.53102 5.87327 6.03267C6.37209 5.53432 7.04836 5.25439 7.75346 5.25439Z" fill="white"/>
<path d="M12.9244 12.6014H17.3227V14.6283H17.3835C17.9967 13.4679 19.4915 12.2442 21.7236 12.2442C26.3702 12.234 27.2316 15.2921 27.2316 19.2571V27.3646H22.6433V20.1819C22.6433 18.4717 22.6129 16.27 20.2592 16.27C17.9055 16.27 17.5052 18.1347 17.5052 20.0704V27.3646H12.9244V12.6014Z" fill="white"/>
</g>
<defs>
<clipPath id="clip0_23_4944">
<rect width="32.4299" height="32.4299" fill="white" transform="translate(0.122223 0.255859)"/>
</clipPath>
</defs>
</svg>
