<svg width="862" height="788" viewBox="0 0 862 788" fill="none" xmlns="http://www.w3.org/2000/svg">
<path d="M783.877 180.497C783.784 172.166 778.892 164.49 771.111 160.459L489.488 14.6927C480.494 10.0334 469.29 11.1143 461.473 17.3683L186.938 165.629C179.215 169.802 174.463 177.573 174.523 185.915L176.564 479.608C176.791 485.324 177.975 506.191 190.535 513.366L471.621 657.771C475.34 659.676 479.539 660.659 483.774 660.618C488.02 660.576 492.211 659.5 495.892 657.511L772.328 508.154C781.49 504.415 787.328 495.994 787.225 486.627L783.877 180.497Z" fill="#C2E3D2"/>
<line x1="313.5" y1="604.314" x2="313.5" y2="444.314" stroke="#0B9D41" stroke-opacity="0.4" stroke-width="6" stroke-linecap="round" stroke-dasharray="0.2 35"/>
<line x1="281.5" y1="604.314" x2="281.5" y2="444.314" stroke="#0B9D41" stroke-opacity="0.4" stroke-width="6" stroke-linecap="round" stroke-dasharray="0.2 35"/>
<line x1="345.5" y1="604.314" x2="345.5" y2="444.314" stroke="#0B9D41" stroke-opacity="0.4" stroke-width="6" stroke-linecap="round" stroke-dasharray="0.2 35"/>
<line x1="409.5" y1="604.314" x2="409.5" y2="444.314" stroke="#0B9D41" stroke-opacity="0.4" stroke-width="6" stroke-linecap="round" stroke-dasharray="0.2 35"/>
<line x1="441.5" y1="604.314" x2="441.5" y2="444.314" stroke="#0B9D41" stroke-opacity="0.4" stroke-width="6" stroke-linecap="round" stroke-dasharray="0.2 35"/>
<line x1="377.5" y1="604.314" x2="377.5" y2="444.314" stroke="#0B9D41" stroke-opacity="0.4" stroke-width="6" stroke-linecap="round" stroke-dasharray="0.2 35"/>
<g filter="url(#filter0_d_1643_2355)">
<rect x="296" y="125.814" width="450" height="374" rx="16" fill="white"/>
</g>
<rect x="346" y="281.814" width="28" height="120" rx="14" fill="#10D1FD" fill-opacity="0.2"/>
<rect x="507" y="234.814" width="28" height="167" rx="14" fill="#74E2FB"/>
<rect x="426" y="319.814" width="28" height="82" rx="14" fill="#10D1FD" fill-opacity="0.2"/>
<rect x="587" y="350.814" width="28" height="51" rx="14" fill="#10D1FD" fill-opacity="0.2"/>
<rect x="668" y="306.814" width="28" height="95" rx="14" fill="#10D1FD" fill-opacity="0.2"/>
<path d="M353.71 166.805H358.163V178.814H361.203V166.805H365.656V164.269H353.71V166.805ZM367.967 178.814H370.992V167.905H367.967V178.814ZM369.487 166.499C370.389 166.499 371.127 165.81 371.127 164.965C371.127 164.127 370.389 163.438 369.487 163.438C368.592 163.438 367.853 164.127 367.853 164.965C367.853 165.81 368.592 166.499 369.487 166.499ZM378.788 179.028C381.486 179.028 383.305 177.714 383.731 175.689L380.932 175.505C380.627 176.336 379.846 176.769 378.837 176.769C377.325 176.769 376.366 175.768 376.366 174.141V174.134H383.795V173.303C383.795 169.596 381.55 167.763 378.667 167.763C375.457 167.763 373.376 170.043 373.376 173.41C373.376 176.868 375.428 179.028 378.788 179.028ZM376.366 172.259C376.43 171.016 377.374 170.022 378.717 170.022C380.03 170.022 380.94 170.959 380.947 172.259H376.366ZM386.169 178.814H389.195V172.266C389.195 171.059 389.962 170.256 390.97 170.256C391.965 170.256 392.632 170.938 392.632 172.01V178.814H395.565V172.153C395.565 171.023 396.212 170.256 397.313 170.256C398.278 170.256 399.003 170.86 399.003 172.074V178.814H402.021V171.478C402.021 169.113 400.615 167.763 398.584 167.763C396.986 167.763 395.743 168.58 395.296 169.83H395.182C394.834 168.566 393.719 167.763 392.22 167.763C390.75 167.763 389.635 168.545 389.18 169.83H389.053V167.905H386.169V178.814ZM404.811 182.905H407.837V177.067H407.929C408.348 177.976 409.264 178.992 411.026 178.992C413.512 178.992 415.45 177.025 415.45 173.374C415.45 169.624 413.426 167.763 411.033 167.763C409.208 167.763 408.334 168.85 407.929 169.738H407.794V167.905H404.811V182.905ZM407.773 173.36C407.773 171.414 408.597 170.171 410.067 170.171C411.566 170.171 412.361 171.471 412.361 173.36C412.361 175.263 411.551 176.584 410.067 176.584C408.611 176.584 407.773 175.306 407.773 173.36ZM422.797 179.028C426.106 179.028 428.166 176.762 428.166 173.403C428.166 170.022 426.106 167.763 422.797 167.763C419.487 167.763 417.427 170.022 417.427 173.403C417.427 176.762 419.487 179.028 422.797 179.028ZM422.811 176.684C421.284 176.684 420.502 175.285 420.502 173.381C420.502 171.478 421.284 170.072 422.811 170.072C424.309 170.072 425.091 171.478 425.091 173.381C425.091 175.285 424.309 176.684 422.811 176.684ZM439.582 178.992C441.343 178.992 442.26 177.976 442.679 177.067H442.806V178.814H445.789V164.269H442.771V169.738H442.679C442.274 168.85 441.4 167.763 439.575 167.763C437.181 167.763 435.157 169.624 435.157 173.374C435.157 177.025 437.096 178.992 439.582 178.992ZM440.541 176.584C439.056 176.584 438.247 175.263 438.247 173.36C438.247 171.471 439.042 170.171 440.541 170.171C442.011 170.171 442.835 171.414 442.835 173.36C442.835 175.306 441.997 176.584 440.541 176.584ZM453.649 179.028C456.347 179.028 458.166 177.714 458.592 175.689L455.793 175.505C455.488 176.336 454.707 176.769 453.698 176.769C452.185 176.769 451.227 175.768 451.227 174.141V174.134H458.656V173.303C458.656 169.596 456.411 167.763 453.528 167.763C450.318 167.763 448.237 170.043 448.237 173.41C448.237 176.868 450.289 179.028 453.649 179.028ZM451.227 172.259C451.291 171.016 452.235 170.022 453.577 170.022C454.891 170.022 455.8 170.959 455.808 172.259H451.227ZM465.05 178.992C466.811 178.992 467.727 177.976 468.147 177.067H468.274V178.814H471.257V164.269H468.239V169.738H468.147C467.742 168.85 466.868 167.763 465.043 167.763C462.649 167.763 460.625 169.624 460.625 173.374C460.625 177.025 462.564 178.992 465.05 178.992ZM466.009 176.584C464.524 176.584 463.715 175.263 463.715 173.36C463.715 171.471 464.51 170.171 466.009 170.171C467.479 170.171 468.303 171.414 468.303 173.36C468.303 175.306 467.465 176.584 466.009 176.584ZM474.145 178.814H477.17V167.905H474.145V178.814ZM475.665 166.499C476.567 166.499 477.305 165.81 477.305 164.965C477.305 164.127 476.567 163.438 475.665 163.438C474.77 163.438 474.031 164.127 474.031 164.965C474.031 165.81 474.77 166.499 475.665 166.499ZM484.923 179.028C487.828 179.028 489.653 177.323 489.795 174.816H486.94C486.763 175.981 485.996 176.634 484.959 176.634C483.545 176.634 482.629 175.448 482.629 173.36C482.629 171.3 483.552 170.121 484.959 170.121C486.067 170.121 486.777 170.853 486.94 171.939H489.795C489.667 169.418 487.757 167.763 484.909 167.763C481.599 167.763 479.554 170.057 479.554 173.403C479.554 176.719 481.564 179.028 484.923 179.028ZM495.243 179.02C496.855 179.02 497.899 178.317 498.432 177.302H498.517V178.814H501.387V171.456C501.387 168.857 499.185 167.763 496.756 167.763C494.142 167.763 492.424 169.013 492.005 171.002L494.803 171.229C495.009 170.505 495.655 169.972 496.742 169.972C497.772 169.972 498.361 170.491 498.361 171.385V171.428C498.361 172.131 497.615 172.224 495.719 172.408C493.56 172.607 491.621 173.331 491.621 175.768C491.621 177.927 493.162 179.02 495.243 179.02ZM496.11 176.932C495.179 176.932 494.512 176.499 494.512 175.668C494.512 174.816 495.215 174.397 496.28 174.248C496.941 174.155 498.02 173.999 498.382 173.758V174.915C498.382 176.059 497.438 176.932 496.11 176.932ZM508.154 178.992C509.915 178.992 510.831 177.976 511.25 177.067H511.378V178.814H514.361V164.269H511.343V169.738H511.25C510.846 168.85 509.972 167.763 508.147 167.763C505.753 167.763 503.729 169.624 503.729 173.374C503.729 177.025 505.668 178.992 508.154 178.992ZM509.113 176.584C507.628 176.584 506.819 175.263 506.819 173.36C506.819 171.471 507.614 170.171 509.113 170.171C510.583 170.171 511.407 171.414 511.407 173.36C511.407 175.306 510.569 176.584 509.113 176.584ZM522.178 179.028C525.487 179.028 527.547 176.762 527.547 173.403C527.547 170.022 525.487 167.763 522.178 167.763C518.868 167.763 516.808 170.022 516.808 173.403C516.808 176.762 518.868 179.028 522.178 179.028ZM522.192 176.684C520.665 176.684 519.884 175.285 519.884 173.381C519.884 171.478 520.665 170.072 522.192 170.072C523.691 170.072 524.472 171.478 524.472 173.381C524.472 175.285 523.691 176.684 522.192 176.684ZM538.054 179.02C539.666 179.02 540.71 178.317 541.243 177.302H541.328V178.814H544.198V171.456C544.198 168.857 541.996 167.763 539.567 167.763C536.953 167.763 535.235 169.013 534.815 171.002L537.614 171.229C537.82 170.505 538.466 169.972 539.553 169.972C540.583 169.972 541.172 170.491 541.172 171.385V171.428C541.172 172.131 540.426 172.224 538.53 172.408C536.371 172.607 534.432 173.331 534.432 175.768C534.432 177.927 535.973 179.02 538.054 179.02ZM538.921 176.932C537.99 176.932 537.323 176.499 537.323 175.668C537.323 174.816 538.026 174.397 539.091 174.248C539.752 174.155 540.831 173.999 541.193 173.758V174.915C541.193 176.059 540.249 176.932 538.921 176.932ZM557.776 167.905H555.724V165.292H552.698V167.905H551.207V170.178H552.698V175.86C552.684 177.998 554.14 179.056 556.335 178.964C557.116 178.935 557.67 178.779 557.975 178.68L557.499 176.428C557.35 176.456 557.031 176.528 556.747 176.528C556.143 176.528 555.724 176.3 555.724 175.462V170.178H557.776V167.905ZM560.147 178.814H563.173V167.905H560.147V178.814ZM561.667 166.499C562.569 166.499 563.308 165.81 563.308 164.965C563.308 164.127 562.569 163.438 561.667 163.438C560.772 163.438 560.034 164.127 560.034 164.965C560.034 165.81 560.772 166.499 561.667 166.499ZM575.997 179.028C578.696 179.028 580.514 177.714 580.94 175.689L578.142 175.505C577.836 176.336 577.055 176.769 576.047 176.769C574.534 176.769 573.575 175.768 573.575 174.141V174.134H581.004V173.303C581.004 169.596 578.76 167.763 575.876 167.763C572.666 167.763 570.585 170.043 570.585 173.41C570.585 176.868 572.638 179.028 575.997 179.028ZM573.575 172.259C573.639 171.016 574.584 170.022 575.926 170.022C577.24 170.022 578.149 170.959 578.156 172.259H573.575ZM592.455 171.016C592.185 169.006 590.566 167.763 587.81 167.763C585.019 167.763 583.18 169.056 583.187 171.158C583.18 172.792 584.209 173.85 586.34 174.276L588.229 174.653C589.181 174.844 589.614 175.192 589.628 175.739C589.614 176.385 588.911 176.847 587.853 176.847C586.773 176.847 586.056 176.385 585.871 175.498L582.896 175.654C583.18 177.742 584.955 179.028 587.846 179.028C590.673 179.028 592.697 177.586 592.704 175.434C592.697 173.857 591.667 172.912 589.55 172.479L587.576 172.081C586.56 171.861 586.184 171.513 586.191 170.988C586.184 170.334 586.923 169.908 587.86 169.908C588.911 169.908 589.536 170.483 589.685 171.187L592.455 171.016ZM600.812 167.905H598.759V165.292H595.733V167.905H594.242V170.178H595.733V175.86C595.719 177.998 597.175 179.056 599.37 178.964C600.151 178.935 600.705 178.779 601.01 178.68L600.535 176.428C600.385 176.456 600.066 176.528 599.782 176.528C599.178 176.528 598.759 176.3 598.759 175.462V170.178H600.812V167.905ZM606.293 179.02C607.905 179.02 608.949 178.317 609.482 177.302H609.567V178.814H612.437V171.456C612.437 168.857 610.235 167.763 607.806 167.763C605.192 167.763 603.474 169.013 603.055 171.002L605.853 171.229C606.059 170.505 606.705 169.972 607.792 169.972C608.822 169.972 609.411 170.491 609.411 171.385V171.428C609.411 172.131 608.665 172.224 606.769 172.408C604.61 172.607 602.671 173.331 602.671 175.768C602.671 177.927 604.212 179.02 606.293 179.02ZM607.16 176.932C606.229 176.932 605.562 176.499 605.562 175.668C605.562 174.816 606.265 174.397 607.33 174.248C607.991 174.155 609.07 173.999 609.432 173.758V174.915C609.432 176.059 608.488 176.932 607.16 176.932ZM629.29 171.016C629.02 169.006 627.4 167.763 624.645 167.763C621.853 167.763 620.014 169.056 620.021 171.158C620.014 172.792 621.044 173.85 623.174 174.276L625.064 174.653C626.015 174.844 626.449 175.192 626.463 175.739C626.449 176.385 625.746 176.847 624.687 176.847C623.608 176.847 622.89 176.385 622.706 175.498L619.73 175.654C620.014 177.742 621.79 179.028 624.68 179.028C627.507 179.028 629.531 177.586 629.538 175.434C629.531 173.857 628.501 172.912 626.385 172.479L624.41 172.081C623.395 171.861 623.018 171.513 623.025 170.988C623.018 170.334 623.757 169.908 624.694 169.908C625.746 169.908 626.371 170.483 626.52 171.187L629.29 171.016ZM636.815 179.028C639.514 179.028 641.332 177.714 641.758 175.689L638.96 175.505C638.654 176.336 637.873 176.769 636.865 176.769C635.352 176.769 634.393 175.768 634.393 174.141V174.134H641.822V173.303C641.822 169.596 639.578 167.763 636.694 167.763C633.484 167.763 631.403 170.043 631.403 173.41C631.403 176.868 633.456 179.028 636.815 179.028ZM634.393 172.259C634.457 171.016 635.402 170.022 636.744 170.022C638.058 170.022 638.967 170.959 638.974 172.259H634.393ZM644.196 178.814H647.222V172.266C647.222 171.059 647.989 170.256 648.998 170.256C649.992 170.256 650.66 170.938 650.66 172.01V178.814H653.593V172.153C653.593 171.023 654.239 170.256 655.34 170.256C656.306 170.256 657.03 170.86 657.03 172.074V178.814H660.049V171.478C660.049 169.113 658.642 167.763 656.611 167.763C655.013 167.763 653.77 168.58 653.323 169.83H653.209C652.861 168.566 651.746 167.763 650.248 167.763C648.777 167.763 647.662 168.545 647.208 169.83H647.08V167.905H644.196V178.814ZM665.949 179.02C667.562 179.02 668.606 178.317 669.138 177.302H669.224V178.814H672.093V171.456C672.093 168.857 669.891 167.763 667.462 167.763C664.849 167.763 663.13 169.013 662.711 171.002L665.509 171.229C665.715 170.505 666.361 169.972 667.448 169.972C668.478 169.972 669.067 170.491 669.067 171.385V171.428C669.067 172.131 668.322 172.224 666.425 172.408C664.266 172.607 662.327 173.331 662.327 175.768C662.327 177.927 663.868 179.02 665.949 179.02ZM666.816 176.932C665.886 176.932 665.218 176.499 665.218 175.668C665.218 174.816 665.921 174.397 666.986 174.248C667.647 174.155 668.726 173.999 669.089 173.758V174.915C669.089 176.059 668.144 176.932 666.816 176.932ZM677.866 172.508C677.873 171.101 678.711 170.278 679.933 170.278C681.147 170.278 681.879 171.073 681.871 172.408V178.814H684.897V171.868C684.897 169.326 683.406 167.763 681.133 167.763C679.513 167.763 678.342 168.559 677.852 169.83H677.724V167.905H674.84V178.814H677.866V172.508ZM690.792 179.02C692.405 179.02 693.449 178.317 693.981 177.302H694.067V178.814H696.936V171.456C696.936 168.857 694.734 167.763 692.305 167.763C689.692 167.763 687.973 169.013 687.554 171.002L690.352 171.229C690.558 170.505 691.204 169.972 692.291 169.972C693.321 169.972 693.91 170.491 693.91 171.385V171.428C693.91 172.131 693.165 172.224 691.268 172.408C689.109 172.607 687.17 173.331 687.17 175.768C687.17 177.927 688.711 179.02 690.792 179.02ZM691.659 176.932C690.728 176.932 690.061 176.499 690.061 175.668C690.061 174.816 690.764 174.397 691.829 174.248C692.49 174.155 693.569 173.999 693.932 173.758V174.915C693.932 176.059 692.987 176.932 691.659 176.932Z" fill="#333333"/>
<mask id="path-15-inside-1_1643_2355" fill="white">
<path d="M811.421 172.497C811.328 164.166 806.622 156.488 799.138 152.454L528.285 6.58204C519.634 1.91936 508.862 2.99601 501.347 9.24704L237.421 157.404C229.996 161.574 225.43 169.343 225.49 177.685L227.564 471.377C227.784 477.094 228.931 497.961 241.011 505.14L511.347 649.651C514.924 651.558 518.962 652.542 523.034 652.502C527.117 652.462 531.146 651.388 534.685 649.401L800.439 500.148C809.248 496.413 814.858 487.993 814.755 478.627L811.421 172.497Z"/>
</mask>
<path d="M811.421 172.497C811.328 164.166 806.622 156.488 799.138 152.454L528.285 6.58204C519.634 1.91936 508.862 2.99601 501.347 9.24704L237.421 157.404C229.996 161.574 225.43 169.343 225.49 177.685L227.564 471.377C227.784 477.094 228.931 497.961 241.011 505.14L511.347 649.651C514.924 651.558 518.962 652.542 523.034 652.502C527.117 652.462 531.146 651.388 534.685 649.401L800.439 500.148C809.248 496.413 814.858 487.993 814.755 478.627L811.421 172.497Z" stroke="#CBCAFF" stroke-width="6" mask="url(#path-15-inside-1_1643_2355)"/>
<g filter="url(#filter1_d_1643_2355)">
<rect x="419" y="457.814" width="413" height="137" rx="16" fill="#3555F6"/>
</g>
<rect x="796" y="540.814" width="16" height="335" rx="8.00001" transform="rotate(90 796 540.814)" fill="#EEEEEE"/>
<rect x="690" y="540.814" width="16" height="230" rx="8" transform="rotate(90 690 540.814)" fill="#8D89FF"/>
<path d="M730.634 497.633H729.401L726.855 499.323V500.576L729.341 498.925H729.401V507.814H730.634V497.633ZM734.755 503.221C734.755 501.888 735.605 501.133 736.763 501.133C737.867 501.133 738.533 501.829 738.533 503.042V507.814H739.707V502.962C739.707 500.998 738.663 500.079 737.102 500.079C735.898 500.079 735.212 500.581 734.854 501.371H734.755V497.633H733.582V507.814H734.755V503.221ZM745.771 507.814H752.194V506.721H747.461V506.641L749.748 504.195C751.498 502.321 752.015 501.446 752.015 500.317C752.015 498.746 750.742 497.493 748.953 497.493C747.168 497.493 745.811 498.706 745.811 500.496H746.984C746.984 499.338 747.735 498.567 748.913 498.567C750.017 498.567 750.862 499.243 750.862 500.317C750.862 501.257 750.31 501.953 749.132 503.241L745.771 506.92V507.814ZM757.688 507.954C759.661 507.954 761.128 506.716 761.128 505.05C761.128 503.758 760.362 502.818 759.08 502.604V502.525C760.109 502.211 760.75 501.366 760.75 500.218C760.75 498.776 759.612 497.493 757.727 497.493C755.968 497.493 754.506 498.577 754.446 500.178H755.639C755.684 499.164 756.649 498.567 757.708 498.567C758.831 498.567 759.557 499.248 759.557 500.278C759.557 501.351 758.717 502.047 757.509 502.047H756.693V503.141H757.509C759.055 503.141 759.915 503.927 759.915 505.05C759.915 506.129 758.975 506.86 757.668 506.86C756.49 506.86 755.555 506.253 755.48 505.269H754.227C754.302 506.87 755.714 507.954 757.688 507.954ZM763.181 507.814H764.355V503.042C764.355 501.923 765.17 501.133 766.085 501.133C766.975 501.133 767.596 501.714 767.596 502.584V507.814H768.789V502.843C768.789 501.858 769.406 501.133 770.48 501.133C771.315 501.133 772.031 501.575 772.031 502.704V507.814H773.204V502.704C773.204 500.909 772.24 500.079 770.877 500.079C769.784 500.079 768.983 500.581 768.59 501.371H768.511C768.133 500.556 767.467 500.079 766.463 500.079C765.468 500.079 764.732 500.556 764.414 501.371H764.315V500.178H763.181V507.814ZM775.349 507.814H776.523V500.178H775.349V507.814ZM775.946 498.905C776.403 498.905 776.781 498.547 776.781 498.11C776.781 497.672 776.403 497.314 775.946 497.314C775.488 497.314 775.111 497.672 775.111 498.11C775.111 498.547 775.488 498.905 775.946 498.905ZM779.845 503.221C779.845 501.888 780.67 501.133 781.794 501.133C782.882 501.133 783.544 501.844 783.544 503.042V507.814H784.717V502.962C784.717 501.013 783.678 500.079 782.132 500.079C780.978 500.079 780.262 500.596 779.904 501.371H779.805V500.178H778.672V507.814H779.845V503.221ZM792.27 501.888C791.902 500.805 791.077 500.079 789.566 500.079C787.955 500.079 786.762 500.993 786.762 502.286C786.762 503.34 787.388 504.046 788.79 504.374L790.063 504.672C790.833 504.851 791.196 505.219 791.196 505.746C791.196 506.403 790.5 506.939 789.406 506.939C788.447 506.939 787.845 506.527 787.637 505.706L786.523 505.985C786.796 507.282 787.865 507.974 789.426 507.974C791.201 507.974 792.409 507.004 792.409 505.687C792.409 504.623 791.743 503.952 790.381 503.618L789.247 503.34C788.343 503.116 787.935 502.813 787.935 502.226C787.935 501.57 788.631 501.093 789.566 501.093C790.59 501.093 791.012 501.66 791.216 502.187L792.27 501.888Z" fill="white"/>
<path d="M479.557 502.087C479.557 496.377 476.011 493.121 471.384 493.121C466.73 493.121 463.21 496.377 463.21 502.087C463.21 507.772 466.73 511.053 471.384 511.053C476.011 511.053 479.557 507.797 479.557 502.087ZM475.815 502.087C475.815 505.786 474.06 507.789 471.384 507.789C468.699 507.789 466.952 505.786 466.952 502.087C466.952 498.388 468.699 496.385 471.384 496.385C474.06 496.385 475.815 498.388 475.815 502.087ZM482.77 510.814H486.35V508.718H486.512C487.015 509.809 488.114 511.028 490.228 511.028C493.211 511.028 495.538 508.667 495.538 504.286C495.538 499.786 493.109 497.553 490.236 497.553C488.046 497.553 486.998 498.857 486.512 499.922H486.401V493.36H482.77V510.814ZM486.324 504.269C486.324 501.934 487.313 500.442 489.077 500.442C490.876 500.442 491.83 502.002 491.83 504.269C491.83 506.553 490.859 508.138 489.077 508.138C487.33 508.138 486.324 506.604 486.324 504.269ZM498.44 497.724V511.403C498.44 512.391 498.022 512.885 496.855 512.885C496.701 512.885 496.565 512.885 496.378 512.868V515.706C496.642 515.715 496.855 515.724 497.111 515.724C500.196 515.724 502.071 514.496 502.071 511.462V497.724H498.44ZM500.247 496.036C501.329 496.036 502.216 495.209 502.216 494.195C502.216 493.189 501.329 492.363 500.247 492.363C499.173 492.363 498.287 493.189 498.287 494.195C498.287 495.209 499.173 496.036 500.247 496.036ZM511.425 511.07C514.664 511.07 516.846 509.493 517.357 507.064L513.999 506.843C513.632 507.84 512.695 508.36 511.485 508.36C509.669 508.36 508.519 507.158 508.519 505.206V505.198H517.434V504.201C517.434 499.752 514.74 497.553 511.28 497.553C507.428 497.553 504.931 500.289 504.931 504.329C504.931 508.479 507.394 511.07 511.425 511.07ZM508.519 502.948C508.596 501.456 509.729 500.263 511.34 500.263C512.917 500.263 514.007 501.388 514.016 502.948H508.519ZM527.246 497.724H524.783V494.587H521.152V497.724H519.362V500.451H521.152V507.269C521.135 509.834 522.882 511.104 525.516 510.993C526.453 510.959 527.118 510.772 527.485 510.653L526.914 507.951C526.735 507.985 526.351 508.07 526.01 508.07C525.286 508.07 524.783 507.797 524.783 506.792V500.451H527.246V497.724ZM530.091 510.814H533.722V497.724H530.091V510.814ZM531.915 496.036C532.997 496.036 533.884 495.209 533.884 494.195C533.884 493.189 532.997 492.363 531.915 492.363C530.841 492.363 529.955 493.189 529.955 494.195C529.955 495.209 530.841 496.036 531.915 496.036ZM549.315 497.724H545.471L542.761 507.09H542.624L539.906 497.724H536.07L540.647 510.814H544.738L549.315 497.724ZM557.122 511.07C561.094 511.07 563.565 508.351 563.565 504.32C563.565 500.263 561.094 497.553 557.122 497.553C553.15 497.553 550.679 500.263 550.679 504.32C550.679 508.351 553.15 511.07 557.122 511.07ZM557.139 508.258C555.307 508.258 554.369 506.579 554.369 504.295C554.369 502.01 555.307 500.323 557.139 500.323C558.937 500.323 559.875 502.01 559.875 504.295C559.875 506.579 558.937 508.258 557.139 508.258ZM577.265 511.028C579.378 511.028 580.478 509.809 580.981 508.718H581.134V510.814H584.713V493.36H581.091V499.922H580.981C580.495 498.857 579.446 497.553 577.256 497.553C574.384 497.553 571.955 499.786 571.955 504.286C571.955 508.667 574.282 511.028 577.265 511.028ZM578.415 508.138C576.634 508.138 575.662 506.553 575.662 504.269C575.662 502.002 576.617 500.442 578.415 500.442C580.179 500.442 581.168 501.934 581.168 504.269C581.168 506.604 580.162 508.138 578.415 508.138ZM594.144 511.07C597.383 511.07 599.565 509.493 600.076 507.064L596.718 506.843C596.352 507.84 595.414 508.36 594.204 508.36C592.389 508.36 591.238 507.158 591.238 505.206V505.198H600.153V504.201C600.153 499.752 597.46 497.553 594 497.553C590.147 497.553 587.65 500.289 587.65 504.329C587.65 508.479 590.113 511.07 594.144 511.07ZM591.238 502.948C591.315 501.456 592.448 500.263 594.059 500.263C595.636 500.263 596.727 501.388 596.735 502.948H591.238ZM606.633 493.36H603.002V510.814H606.633V493.36ZM620.88 511.028C622.994 511.028 624.093 509.809 624.596 508.718H624.749V510.814H628.329V493.36H624.707V499.922H624.596C624.11 498.857 623.062 497.553 620.871 497.553C617.999 497.553 615.57 499.786 615.57 504.286C615.57 508.667 617.897 511.028 620.88 511.028ZM622.03 508.138C620.249 508.138 619.278 506.553 619.278 504.269C619.278 502.002 620.232 500.442 622.03 500.442C623.795 500.442 624.783 501.934 624.783 504.269C624.783 506.604 623.778 508.138 622.03 508.138ZM631.794 510.814H635.425V497.724H631.794V510.814ZM632.314 496.036H634.879L637.479 492.158H634.121L632.314 496.036ZM642.546 511.062C644.481 511.062 645.733 510.218 646.373 508.999H646.475V510.814H649.918V501.985C649.918 498.866 647.276 497.553 644.361 497.553C641.225 497.553 639.162 499.053 638.66 501.439L642.017 501.712C642.265 500.843 643.04 500.204 644.344 500.204C645.58 500.204 646.287 500.826 646.287 501.9V501.951C646.287 502.795 645.392 502.905 643.117 503.127C640.526 503.366 638.199 504.235 638.199 507.158C638.199 509.749 640.049 511.062 642.546 511.062ZM643.586 508.556C642.469 508.556 641.668 508.036 641.668 507.039C641.668 506.016 642.512 505.513 643.79 505.334C644.583 505.224 645.878 505.036 646.313 504.746V506.135C646.313 507.508 645.179 508.556 643.586 508.556Z" fill="white"/>
<line x1="353" y1="425.314" x2="682" y2="425.314" stroke="black"/>
<path d="M345.885 449.814H352.403V448.04H348.038V439.633H345.885V449.814ZM358.966 446.563C358.971 447.587 358.27 448.124 357.509 448.124C356.708 448.124 356.191 447.562 356.186 446.662V442.178H354.069V447.04C354.074 448.825 355.118 449.914 356.654 449.914C357.802 449.914 358.627 449.322 358.971 448.427H359.05V449.814H361.083V442.178H358.966V446.563Z" fill="#333333"/>
<path d="M426.885 439.633V449.814H428.973V443.162H429.058L431.692 449.765H433.114L435.749 443.187H435.834V449.814H437.922V439.633H435.267L432.463 446.474H432.344L429.54 439.633H426.885ZM442.113 449.959C443.242 449.959 443.973 449.466 444.346 448.756H444.405V449.814H446.414V444.664C446.414 442.844 444.873 442.079 443.172 442.079C441.343 442.079 440.14 442.954 439.846 444.346L441.805 444.505C441.949 443.998 442.402 443.625 443.162 443.625C443.883 443.625 444.296 443.988 444.296 444.614V444.644C444.296 445.136 443.774 445.201 442.446 445.33C440.935 445.469 439.578 445.976 439.578 447.682C439.578 449.193 440.657 449.959 442.113 449.959ZM442.72 448.497C442.069 448.497 441.601 448.194 441.601 447.612C441.601 447.015 442.093 446.722 442.839 446.618C443.301 446.553 444.057 446.444 444.311 446.275V447.085C444.311 447.885 443.649 448.497 442.72 448.497ZM448.337 449.814H450.455V445.494C450.455 444.555 451.141 443.908 452.075 443.908C452.369 443.908 452.771 443.958 452.97 444.023V442.143C452.781 442.099 452.518 442.069 452.304 442.069C451.449 442.069 450.748 442.566 450.47 443.51H450.39V442.178H448.337V449.814Z" fill="#333333"/>
<path d="M507.885 439.633V449.814H509.973V443.162H510.058L512.692 449.765H514.114L516.749 443.187H516.834V449.814H518.922V439.633H516.267L513.463 446.474H513.344L510.54 439.633H507.885ZM520.936 449.814H523.054V442.178H520.936V449.814ZM522 441.194C522.631 441.194 523.148 440.711 523.148 440.12C523.148 439.533 522.631 439.051 522 439.051C521.373 439.051 520.856 439.533 520.856 440.12C520.856 440.711 521.373 441.194 522 441.194ZM528.51 449.964C530.399 449.964 531.672 449.044 531.971 447.627L530.012 447.498C529.798 448.079 529.251 448.383 528.545 448.383C527.486 448.383 526.815 447.682 526.815 446.543V446.538H532.015V445.956C532.015 443.361 530.444 442.079 528.426 442.079C526.179 442.079 524.722 443.675 524.722 446.031C524.722 448.452 526.159 449.964 528.51 449.964ZM526.815 445.226C526.86 444.356 527.521 443.66 528.461 443.66C529.38 443.66 530.017 444.316 530.022 445.226H526.815Z" fill="#333333"/>
<path d="M591.962 439.633V446.732C591.957 447.711 591.519 448.229 590.724 448.229C589.973 448.229 589.486 447.761 589.471 446.951H587.328C587.318 448.984 588.77 449.954 590.614 449.954C592.678 449.954 594.085 448.706 594.089 446.732V439.633H591.962ZM601.007 446.563C601.012 447.587 600.311 448.124 599.55 448.124C598.749 448.124 598.232 447.562 598.227 446.662V442.178H596.11V447.04C596.115 448.825 597.159 449.914 598.695 449.914C599.843 449.914 600.668 449.322 601.012 448.427H601.091V449.814H603.124V442.178H601.007V446.563ZM608.579 449.964C610.468 449.964 611.741 449.044 612.039 447.627L610.08 447.498C609.866 448.079 609.319 448.383 608.613 448.383C607.554 448.383 606.883 447.682 606.883 446.543V446.538H612.084V445.956C612.084 443.361 610.513 442.079 608.494 442.079C606.247 442.079 604.79 443.675 604.79 446.031C604.79 448.452 606.227 449.964 608.579 449.964ZM606.883 445.226C606.928 444.356 607.589 443.66 608.529 443.66C609.449 443.66 610.085 444.316 610.09 445.226H606.883Z" fill="#333333"/>
<path d="M676.724 439.633H674.333L677.848 449.814H680.622L684.132 439.633H681.746L679.28 447.368H679.185L676.724 439.633ZM685.598 449.814H687.716V442.178H685.598V449.814ZM686.662 441.194C687.293 441.194 687.81 440.711 687.81 440.12C687.81 439.533 687.293 439.051 686.662 439.051C686.035 439.051 685.518 439.533 685.518 440.12C685.518 440.711 686.035 441.194 686.662 441.194ZM693.172 449.964C695.062 449.964 696.334 449.044 696.633 447.627L694.674 447.498C694.46 448.079 693.913 448.383 693.207 448.383C692.148 448.383 691.477 447.682 691.477 446.543V446.538H696.677V445.956C696.677 443.361 695.106 442.079 693.088 442.079C690.841 442.079 689.384 443.675 689.384 446.031C689.384 448.452 690.821 449.964 693.172 449.964ZM691.477 445.226C691.522 444.356 692.183 443.66 693.123 443.66C694.042 443.66 694.679 444.316 694.684 445.226H691.477Z" fill="#333333"/>
<g clip-path="url(#clip0_1643_2355)">
<path d="M236.898 670.044L249.885 680.873C249.885 680.873 260.163 669.876 273.601 655.098C267.552 651.034 261.174 647.348 254.775 643.615C244.597 659.08 236.898 670.044 236.898 670.044Z" fill="#EFAC7F"/>
<path d="M252.29 673.845C252.29 673.845 244.092 676.763 242.631 674.822C241.169 672.882 243.042 665.752 240.159 665.348C237.276 664.943 222.235 675.078 221.804 678.124C221.373 681.17 219.79 685.092 221.279 687.08C222.774 689.068 256.668 719.311 262.723 722.532C268.778 725.753 274.369 717.909 268.826 712.491C263.282 707.073 266.084 673.576 252.29 673.845Z" fill="#31DAE7"/>
<path d="M232.938 681.324C230.271 678.426 227.28 676.276 224.525 674.713C222.969 676.115 221.447 677.968 221.083 678.662C219.393 681.896 219.79 685.09 221.279 687.072C222.774 689.059 256.667 719.303 262.723 722.524C266.003 724.269 269.148 722.766 270.462 720.158C269.209 719.815 267.747 719.175 266.117 718.069C260.446 714.222 240.549 689.605 232.938 681.324Z" fill="#F2F2F2"/>
<path d="M227.273 493.344C227.273 493.344 321.181 495.001 336.646 533.135C352.111 571.269 260.386 672.1 260.386 672.1L242.186 659.97C242.186 659.97 292.002 570.164 286.843 559.113C281.684 548.062 240.509 548.014 236.084 543.594C231.665 539.167 227.273 493.344 227.273 493.344Z" fill="#6D69EB"/>
<path opacity="0.47" d="M276.841 552.468C274.732 538.424 264.373 512.636 258.095 495.924C240.63 493.585 227.273 493.35 227.273 493.35C227.273 493.35 231.665 539.172 236.084 543.593C239.364 546.868 262.81 547.737 276.841 552.468Z" fill="#4B47B0"/>
<path d="M348.924 707.572C346.748 707.572 344.977 705.806 344.977 703.623C344.977 651.19 387.62 608.527 440.029 608.527C462.492 608.527 484.295 616.513 501.41 631.014C503.074 632.423 503.283 634.916 501.868 636.574C500.461 638.238 497.969 638.44 496.312 637.039C480.618 623.743 460.627 616.418 440.022 616.418C391.964 616.418 352.857 655.536 352.857 703.623C352.871 705.8 351.099 707.572 348.924 707.572Z" fill="#F36B80"/>
<path d="M176.231 787.815C129.829 787.815 92.0762 750.045 92.0762 703.622C92.0762 657.2 129.829 619.43 176.231 619.43C222.632 619.43 260.385 657.2 260.385 703.622C260.392 750.052 222.639 787.815 176.231 787.815ZM176.231 629.949C135.628 629.949 102.59 662.995 102.59 703.622C102.59 744.243 135.622 777.296 176.231 777.296C216.833 777.296 249.871 744.25 249.871 703.622C249.871 663.002 216.833 629.949 176.231 629.949Z" fill="#472A6A"/>
<path d="M176.23 780.766C133.708 780.766 99.1211 746.157 99.1211 703.623C99.1211 661.081 133.715 626.479 176.23 626.479C218.745 626.479 253.339 661.088 253.339 703.623C253.339 746.164 218.752 780.766 176.23 780.766ZM176.23 630.448C135.897 630.448 103.088 663.272 103.088 703.623C103.088 743.974 135.897 776.797 176.23 776.797C216.563 776.797 249.372 743.974 249.372 703.623C249.379 663.272 216.563 630.448 176.23 630.448Z" fill="#F2F2F2"/>
<g opacity="0.57">
<path opacity="0.57" d="M176.23 768.961C140.222 768.961 110.922 739.648 110.922 703.623C110.922 667.598 140.222 638.285 176.23 638.285C212.239 638.285 241.538 667.598 241.538 703.623C241.538 739.648 212.245 768.961 176.23 768.961ZM176.23 640.913C141.67 640.913 113.549 669.04 113.549 703.623C113.549 738.199 141.663 766.333 176.23 766.333C210.79 766.333 238.912 738.206 238.912 703.623C238.912 669.047 210.79 640.913 176.23 640.913Z" fill="#F2F2F2"/>
</g>
<g opacity="0.57">
<path opacity="0.57" d="M176.231 760.753C144.742 760.753 119.127 735.126 119.127 703.623C119.127 694.425 121.249 685.637 125.425 677.517C125.755 676.87 126.55 676.614 127.196 676.951C127.843 677.282 128.099 678.077 127.762 678.724C123.775 686.473 121.754 694.849 121.754 703.623C121.754 733.67 146.191 758.125 176.225 758.125C184.125 758.125 191.743 756.467 198.87 753.206C199.53 752.903 200.311 753.199 200.614 753.853C200.917 754.513 200.628 755.295 199.967 755.598C192.498 759.021 184.509 760.753 176.231 760.753Z" fill="#F2F2F2"/>
</g>
<path d="M216.955 666.79C216.605 666.79 216.254 666.649 215.992 666.372C205.727 655.415 191.238 649.128 176.231 649.128C175.504 649.128 174.918 648.542 174.918 647.814C174.918 647.086 175.504 646.5 176.231 646.5C191.959 646.5 207.154 653.09 217.911 664.58C218.41 665.112 218.383 665.941 217.851 666.44C217.601 666.669 217.278 666.79 216.955 666.79Z" fill="#F2F2F2"/>
<path d="M235.066 637.974C234.164 637.974 233.261 637.664 232.52 637.038C216.82 623.742 196.835 616.417 176.231 616.417C158.847 616.417 142.068 621.518 127.694 631.175C125.883 632.388 123.438 631.909 122.218 630.097C121.006 628.291 121.484 625.838 123.296 624.618C138.97 614.086 157.277 608.52 176.231 608.52C198.694 608.52 220.497 616.505 237.613 631.006C239.276 632.415 239.485 634.908 238.077 636.566C237.296 637.503 236.185 637.974 235.066 637.974Z" fill="#F36B80"/>
<path d="M287.706 701.823C286.554 701.823 285.436 701.217 284.836 700.139L212.307 570.386C211.418 568.803 211.984 566.794 213.574 565.912C215.157 565.022 217.164 565.595 218.046 567.179L290.575 696.931C291.464 698.515 290.892 700.523 289.309 701.406C288.803 701.689 288.251 701.823 287.706 701.823Z" fill="#F36B80"/>
<path d="M374.352 578.257C374.48 576.121 372.574 574.436 370.473 574.82L232.386 600.326C168.722 710.058 172.083 702.733 173.309 705.119C175.053 708.515 171.807 706.123 293.916 708.239C375.497 577.166 374.245 579.928 374.352 578.257ZM290.286 701.628L181.903 700.395L236.549 606.25L364.337 582.644L290.286 701.628Z" fill="#F36B80"/>
<path d="M370.472 574.826L363.811 576.06L369.812 586.464C374.48 578.89 374.311 578.917 374.352 578.263C374.473 576.127 372.574 574.442 370.472 574.826Z" fill="#E25A74"/>
<path d="M218.046 567.179C217.157 565.595 215.156 565.022 213.573 565.912C211.99 566.801 211.425 568.803 212.307 570.386L216.416 577.738L223.205 576.404L218.046 567.179Z" fill="#7772D6"/>
<path d="M176.23 694.856C175.691 694.856 175.247 694.431 175.22 693.886C175.193 693.326 175.624 692.855 176.183 692.828L292.049 687.457C292.594 687.423 293.079 687.861 293.106 688.421C293.133 688.98 292.702 689.452 292.143 689.479L176.277 694.849C176.264 694.856 176.244 694.856 176.23 694.856Z" fill="#472A6A"/>
<path d="M293.746 719.796C293.732 719.796 293.712 719.796 293.698 719.796L176.189 714.425C175.63 714.398 175.199 713.927 175.219 713.367C175.246 712.808 175.738 712.357 176.277 712.404L293.786 717.775C294.345 717.801 294.776 718.273 294.756 718.833C294.729 719.372 294.284 719.796 293.746 719.796Z" fill="#472A6A"/>
<path d="M308.094 713.675C313.629 704.83 310.949 693.17 302.107 687.633C293.266 682.096 281.612 684.778 276.078 693.623C270.543 702.468 273.224 714.127 282.065 719.664C290.906 725.202 302.56 722.52 308.094 713.675Z" fill="#31DAE7"/>
<path d="M308.565 712.887L297.6 685.542C295.862 685.01 294.016 684.727 292.104 684.727C286.54 684.727 281.535 687.132 278.08 690.967C278.834 695.367 279.919 699.43 281.428 700.225C284.95 702.085 288.157 710.832 290.184 716.095C290.952 718.096 291.8 720.414 292.555 722.517C299.425 722.348 305.393 718.514 308.565 712.887Z" fill="#34BED1"/>
<path d="M319.059 749.83C318.621 749.83 318.19 749.607 317.941 749.21L290.978 705.631C290.595 705.011 290.79 704.202 291.403 703.818C292.022 703.434 292.831 703.623 293.215 704.243L320.17 747.821C320.554 748.441 320.359 749.25 319.746 749.634C319.531 749.769 319.295 749.83 319.059 749.83Z" fill="black"/>
<path d="M304.59 753.287C303.31 753.287 302.186 752.35 301.99 751.043C301.775 749.607 302.772 748.266 304.206 748.058L333.136 743.785C334.57 743.57 335.911 744.567 336.119 746.002C336.335 747.438 335.338 748.779 333.903 748.987L304.974 753.267C304.846 753.273 304.718 753.287 304.59 753.287Z" fill="#F36B80"/>
<path d="M197.096 562.529H222.746C224.652 562.529 226.194 564.072 226.194 565.979V570.104C226.194 572.004 224.652 573.554 222.746 573.554H190.361C187.835 573.554 186.111 570.899 187.236 568.635C189.041 565.016 192.779 562.529 197.096 562.529Z" fill="#31DAE7"/>
<path d="M248.314 497.244L210.75 483.982C210.75 483.982 182.851 508.848 187.964 525.432C193.076 542.009 234.5 583.458 254.39 617.724C266.177 638.028 279.702 673.278 288.775 698.622C295.605 695.758 306.705 692.874 313.589 690.475C307.136 656.498 292.998 608.128 287.448 597.273C278.692 580.143 248.314 497.244 248.314 497.244Z" fill="#8D89FF"/>
<path d="M303.729 693.588C304.712 693.291 305.689 692.995 306.639 692.705C303.655 683.338 288.924 637.677 278.356 616.538C272.294 604.415 255.805 582.67 239.855 561.645C224.741 541.719 210.468 522.898 207.962 515.944C204.675 506.813 212.967 494.104 218.712 486.799L215.661 485.721C209.579 493.612 201.422 506.779 205.093 516.975C207.753 524.36 222.168 543.363 237.424 563.478C253.286 584.395 269.694 606.026 275.628 617.893C286.095 638.816 300.738 684.187 303.729 693.588Z" fill="#5B57D6"/>
<path d="M299.136 728.805L315.591 724.937C315.591 724.937 312.991 710.112 309.259 690.482C302.375 692.875 295.599 695.759 288.77 698.629C295.007 716.049 299.136 728.805 299.136 728.805Z" fill="#EFAC7F"/>
<path d="M311.429 718.784C311.429 718.784 308.829 727.092 306.404 727.092C303.973 727.092 299.406 721.311 297.352 723.373C295.29 725.435 294.347 743.548 296.523 745.725C298.699 747.901 300.874 751.527 303.36 751.527C305.845 751.527 350.381 742.618 356.598 739.714C362.815 736.809 359.912 727.625 352.247 728.797C344.568 729.976 319.505 707.597 311.429 718.784Z" fill="#31DAE7"/>
<path d="M305.763 738.752C301.843 739.143 298.334 740.241 295.424 741.501C295.606 743.59 296.171 745.922 296.508 746.629C298.078 749.924 300.859 751.528 303.345 751.528C305.83 751.528 350.366 742.62 356.583 739.715C359.951 738.145 360.645 734.722 359.351 732.107C358.321 732.903 356.933 733.691 355.067 734.324C348.574 736.541 316.951 737.647 305.763 738.752Z" fill="#F2F2F2"/>
<path d="M284.64 701.979C292.325 704.473 310.815 703.853 315.233 701.979C319.308 700.247 319.584 685.092 315.233 684.27C309.124 683.118 291.814 683.246 284.64 684.27C280.262 684.897 280.437 700.611 284.64 701.979Z" fill="#5B57D6"/>
<path d="M313.838 369.588C313.838 369.588 322.284 404.871 318.91 408.254C315.529 411.637 301 403.18 301 403.18L302.219 381.205L313.838 369.588Z" fill="#B984F9"/>
<path d="M341.697 360.255C361.332 343.624 371.226 315.483 379.592 296.803C379.841 296.251 379.814 282.113 383.404 279.991C384.152 279.546 384.96 279.728 385.411 280.361C386.119 281.352 385.58 282.235 385.519 284.674C385.459 287.113 386.247 289.027 386.907 288.609C388.368 287.693 392.012 271.641 394.403 267.639C395.596 265.637 397.495 265.651 395.663 272.544C395.117 274.593 394.417 276.743 393.77 278.724C392.235 283.421 391.958 286.635 392.666 285.53C394.767 282.228 400.593 263.973 403.463 264.445C404.864 264.674 395.171 287.565 395.447 288.636C396.283 291.904 404.736 266.021 406.339 269.317C407.329 271.358 400.391 286.251 399.179 289.856C398.586 291.628 400.418 290.247 402.244 288.414C403.739 286.918 407.605 279.701 408.023 283.535C408.393 286.925 394.127 302.538 390.113 309.23C386.563 315.139 378.837 360.025 361.514 377.856C350.063 389.635 310.613 402.917 290.635 410.916C277.426 416.206 263.706 401.313 271.358 388.624C273.601 384.905 277.325 382.357 281.596 381.555C292.15 379.568 336.053 365.032 341.697 360.255Z" fill="#FFB3C5"/>
<path d="M313.838 369.586C314.99 368.434 255.697 379.041 250.463 387.727C245.23 396.413 251.73 422.114 265.544 422.114C279.366 422.114 318.904 408.253 318.904 408.253C318.904 408.253 306.207 377.228 313.838 369.586Z" fill="#E25A74"/>
<path d="M285.373 389.372C286.343 392.04 287.246 394.749 287.953 397.317C291.24 409.156 292.776 434.372 287.953 442.924C283.13 451.475 268.157 500.95 260.93 503.363C253.696 505.775 195.467 518.491 182.399 509.36C173.758 503.322 212.265 407.027 223.002 385.099C227.467 375.975 238.116 371.285 248.469 369.668C250.833 369.291 280.786 376.764 285.373 389.372Z" fill="#FF6961"/>
<path d="M280.855 460.66C274.733 444.616 246.868 389.372 236.623 398.443C236.623 398.443 225.543 407.971 232.898 432.426C240.253 456.88 244.557 469.38 253.381 480.095C254.432 481.375 261.403 481.685 262.063 482.345C262.103 482.386 262.151 482.426 262.198 482.467C263.962 484.05 266.603 486.422 269.755 489.246C273.48 480.769 277.454 469.879 280.855 460.66Z" fill="#E25A74"/>
<path d="M282.627 348.719L280.047 369.595C280.047 369.595 278.626 386.098 277.946 386.637C271.277 391.913 248.471 369.662 248.471 369.662L264.34 341.953L282.627 348.719Z" fill="#FFB3C5"/>
<path opacity="0.68" d="M260.748 348.382L264.338 341.953L282.632 348.719L280.052 369.595C277.688 368.921 275.539 368.011 273.856 366.859C268.952 363.49 264.028 356.212 260.748 348.382Z" fill="#EA94AD"/>
<path d="M281.01 301.845C281.01 301.845 281.926 301.474 287.146 308.644C290.87 313.759 293.12 319.864 295.444 325.7C298.906 334.386 301.796 343.84 299.182 353.146C297.808 358.039 278.194 359.366 270.293 355.154C262.392 350.943 255.064 337.438 255.529 327.816C255.994 318.2 277.487 299.972 281.01 301.845Z" fill="#FFB3C5"/>
<path opacity="0.68" d="M291.49 316.19C290.25 313.549 288.856 310.988 287.145 308.643C285.637 306.574 284.492 305.139 283.623 304.135C277.864 306.446 270.212 309.869 265.645 311.952C264.413 313.178 263.214 314.458 262.096 315.759L265.544 334.041L269.37 325.078C269.37 325.078 272.873 318.488 280.848 316.797C285.024 315.914 288.823 315.954 291.49 316.19Z" fill="#EA94AD"/>
<path d="M268.09 348.671C266.884 351.245 264.85 351.952 258.714 352.067C250.82 352.215 242.986 346.224 240.993 335.294C234.904 301.85 266.581 293.683 274.725 290.489C277.776 289.29 280.167 290.28 281.959 291.985C284.848 294.734 288.735 296.089 292.668 295.449C294.386 295.172 298.946 295.065 300.185 297.686C303.721 305.193 303.822 312.996 290.472 312.996C260.223 312.996 270.421 343.711 268.09 348.671Z" fill="#472A6A"/>
<path d="M269.377 329.695C269.377 329.695 264.157 320.429 262.642 326.137C261.119 331.845 262.507 343.26 268.279 339.83C274.045 336.407 269.377 329.695 269.377 329.695Z" fill="#FFB3C5"/>
<path d="M176.231 717.672C168.485 717.672 162.188 711.372 162.188 703.622C162.188 695.873 168.485 689.572 176.231 689.572C183.977 689.572 190.275 695.873 190.275 703.622C190.275 711.372 183.977 717.672 176.231 717.672Z" fill="#472A6A"/>
<path d="M164.215 703.623C164.215 710.261 169.597 715.645 176.231 715.645C182.866 715.645 188.247 710.261 188.247 703.623C188.247 696.986 182.866 691.602 176.231 691.602C169.597 691.602 164.215 696.986 164.215 703.623Z" fill="#DCC7F7"/>
<path d="M179.631 703.622C179.631 705.502 178.109 707.025 176.23 707.025C174.35 707.025 172.828 705.502 172.828 703.622C172.828 701.742 174.35 700.219 176.23 700.219C178.109 700.225 179.631 701.742 179.631 703.622Z" fill="#F5FDFF"/>
<g opacity="0.57">
<path opacity="0.57" d="M438.636 760.753C407.147 760.753 381.531 735.126 381.531 703.623C381.531 694.425 383.653 685.637 387.829 677.517C388.159 676.87 388.954 676.614 389.6 676.951C390.247 677.282 390.503 678.077 390.166 678.724C386.179 686.473 384.158 694.849 384.158 703.623C384.158 733.67 408.595 758.125 438.629 758.125C446.53 758.125 454.148 756.467 461.274 753.206C461.934 752.903 462.715 753.199 463.018 753.853C463.321 754.513 463.032 755.295 462.372 755.598C454.902 759.021 446.914 760.753 438.636 760.753Z" fill="#F2F2F2"/>
</g>
<path d="M438.635 787.815C392.233 787.815 354.48 750.045 354.48 703.622C354.48 657.2 392.233 619.43 438.635 619.43C485.036 619.43 522.789 657.2 522.789 703.622C522.789 750.052 485.036 787.815 438.635 787.815ZM438.635 629.949C398.033 629.949 364.995 662.995 364.995 703.622C364.995 744.243 398.026 777.296 438.635 777.296C479.237 777.296 512.275 744.25 512.275 703.622C512.268 663.002 479.237 629.949 438.635 629.949Z" fill="#472A6A"/>
<path d="M438.636 780.766C396.115 780.766 361.527 746.157 361.527 703.623C361.527 661.081 396.121 626.479 438.636 626.479C481.151 626.479 515.745 661.088 515.745 703.623C515.745 746.164 481.151 780.766 438.636 780.766ZM438.636 630.448C398.304 630.448 365.495 663.272 365.495 703.623C365.495 743.974 398.304 776.797 438.636 776.797C478.969 776.797 511.778 743.974 511.778 703.623C511.778 663.272 478.969 630.448 438.636 630.448Z" fill="#F2F2F2"/>
<g opacity="0.57">
<path opacity="0.57" d="M438.636 768.961C402.628 768.961 373.328 739.648 373.328 703.623C373.328 667.598 402.628 638.285 438.636 638.285C474.645 638.285 503.945 667.598 503.945 703.623C503.945 739.648 474.645 768.961 438.636 768.961ZM438.636 640.913C404.076 640.913 375.955 669.04 375.955 703.623C375.955 738.199 404.076 766.333 438.636 766.333C473.197 766.333 501.318 738.206 501.318 703.623C501.318 669.047 473.197 640.913 438.636 640.913Z" fill="#F2F2F2"/>
</g>
<path d="M440.036 706.911C438.878 706.911 437.753 706.298 437.153 705.206L348.621 544.025C347.772 542.482 347.328 540.736 347.328 538.977V528.526C347.328 526.471 345.947 525.466 345.347 525.13C344.755 524.793 343.179 524.119 341.421 525.177L326.003 534.429C324.447 535.366 322.426 534.86 321.49 533.304C320.554 531.747 321.059 529.725 322.615 528.789L338.033 519.536C341.306 517.569 345.253 517.522 348.581 519.402C351.908 521.289 353.895 524.698 353.895 528.519V538.971C353.895 539.624 354.063 540.278 354.38 540.851L442.912 702.039C443.788 703.629 443.209 705.631 441.612 706.507C441.114 706.783 440.568 706.911 440.036 706.911Z" fill="#F36B80"/>
<path d="M328.55 512.46C324.919 512.46 306.41 488.302 295.357 473.437C289.881 466.071 285.974 457.668 283.873 448.74L280.714 435.303L253.172 437.163C253.172 437.163 262.891 470.842 266.454 474.4C266.495 474.441 266.542 474.481 266.589 474.522C276.073 483.033 310.835 514.233 314.432 517.13C319.322 521.072 324.515 526.146 324.515 532.151C324.515 538.161 345.894 534.152 345.894 529.482C345.894 524.812 333.797 512.46 328.55 512.46Z" fill="#FFB3C5"/>
<path opacity="0.68" d="M289.275 463.592C286.904 458.881 285.085 453.901 283.873 448.74L280.714 435.303L253.172 437.163C253.172 437.163 261.564 466.247 265.613 473.214C271.904 469.892 282.815 464.521 289.275 463.592Z" fill="#EA94AD"/>
<path d="M241.013 390.504C241.013 390.504 231.61 390.916 238.972 415.37C246.327 439.825 257.777 472.157 257.777 472.157C257.777 472.157 279.237 464.906 291.705 452.264C291.698 452.257 277.392 371.852 241.013 390.504Z" fill="#FF6961"/>
<path d="M438.635 717.672C430.89 717.672 424.592 711.372 424.592 703.622C424.592 695.873 430.89 689.572 438.635 689.572C446.381 689.572 452.679 695.873 452.679 703.622C452.679 711.372 446.381 717.672 438.635 717.672Z" fill="#472A6A"/>
<path d="M426.619 703.623C426.619 710.261 432.001 715.645 438.635 715.645C445.27 715.645 450.652 710.261 450.652 703.623C450.652 696.986 445.27 691.602 438.635 691.602C432.001 691.602 426.619 696.986 426.619 703.623Z" fill="#DCC7F7"/>
<path d="M442.037 703.622C442.037 705.502 440.515 707.025 438.636 707.025C436.757 707.025 435.234 705.502 435.234 703.622C435.234 701.742 436.757 700.219 438.636 700.219C440.515 700.225 442.037 701.742 442.037 703.622Z" fill="#F5FDFF"/>
</g>
<g filter="url(#filter2_d_1643_2355)">
<rect x="227" y="85.8145" width="115" height="115" rx="16" fill="#10D1FD"/>
</g>
<path d="M280.583 130.022H285.499V142.314H297.791V147.23H280.583V130.022Z" fill="white"/>
<path fill-rule="evenodd" clip-rule="evenodd" d="M310.083 142.314C310.083 155.891 299.076 166.897 285.499 166.897C271.922 166.897 260.916 155.891 260.916 142.314C260.916 128.737 271.922 117.73 285.499 117.73C299.076 117.73 310.083 128.737 310.083 142.314ZM305.166 142.314C305.166 153.175 296.361 161.98 285.499 161.98C274.638 161.98 265.833 153.175 265.833 142.314C265.833 131.452 274.638 122.647 285.499 122.647C296.361 122.647 305.166 131.452 305.166 142.314Z" fill="white"/>
<defs>
<filter id="filter0_d_1643_2355" x="246" y="85.8145" width="570" height="494" filterUnits="userSpaceOnUse" color-interpolation-filters="sRGB">
<feFlood flood-opacity="0" result="BackgroundImageFix"/>
<feColorMatrix in="SourceAlpha" type="matrix" values="0 0 0 0 0 0 0 0 0 0 0 0 0 0 0 0 0 0 127 0" result="hardAlpha"/>
<feOffset dx="10" dy="20"/>
<feGaussianBlur stdDeviation="30"/>
<feColorMatrix type="matrix" values="0 0 0 0 0 0 0 0 0 0 0 0 0 0 0 0 0 0 0.1 0"/>
<feBlend mode="normal" in2="BackgroundImageFix" result="effect1_dropShadow_1643_2355"/>
<feBlend mode="normal" in="SourceGraphic" in2="effect1_dropShadow_1643_2355" result="shape"/>
</filter>
<filter id="filter1_d_1643_2355" x="409" y="457.814" width="453" height="177" filterUnits="userSpaceOnUse" color-interpolation-filters="sRGB">
<feFlood flood-opacity="0" result="BackgroundImageFix"/>
<feColorMatrix in="SourceAlpha" type="matrix" values="0 0 0 0 0 0 0 0 0 0 0 0 0 0 0 0 0 0 127 0" result="hardAlpha"/>
<feOffset dx="10" dy="20"/>
<feGaussianBlur stdDeviation="10"/>
<feColorMatrix type="matrix" values="0 0 0 0 0 0 0 0 0 0 0 0 0 0 0 0 0 0 0.08 0"/>
<feBlend mode="normal" in2="BackgroundImageFix" result="effect1_dropShadow_1643_2355"/>
<feBlend mode="normal" in="SourceGraphic" in2="effect1_dropShadow_1643_2355" result="shape"/>
</filter>
<filter id="filter2_d_1643_2355" x="217" y="85.8145" width="155" height="155" filterUnits="userSpaceOnUse" color-interpolation-filters="sRGB">
<feFlood flood-opacity="0" result="BackgroundImageFix"/>
<feColorMatrix in="SourceAlpha" type="matrix" values="0 0 0 0 0 0 0 0 0 0 0 0 0 0 0 0 0 0 127 0" result="hardAlpha"/>
<feOffset dx="10" dy="20"/>
<feGaussianBlur stdDeviation="10"/>
<feColorMatrix type="matrix" values="0 0 0 0 0 0 0 0 0 0 0 0 0 0 0 0 0 0 0.08 0"/>
<feBlend mode="normal" in2="BackgroundImageFix" result="effect1_dropShadow_1643_2355"/>
<feBlend mode="normal" in="SourceGraphic" in2="effect1_dropShadow_1643_2355" result="shape"/>
</filter>
<clipPath id="clip0_1643_2355">
<rect width="535" height="631" fill="white" transform="translate(0 156.814)"/>
</clipPath>
</defs>
</svg>
