<svg width="168" height="50" viewBox="0 0 168 50" fill="none" xmlns="http://www.w3.org/2000/svg">
<path d="M161.419 49.666H6.58027C3.17382 49.666 0.386719 46.891 0.386719 43.4993V6.49935C0.386719 3.10769 3.17382 0.332688 6.58027 0.332688H161.419C164.825 0.332688 167.613 3.10769 167.613 6.49935V43.4993C167.613 46.891 164.825 49.666 161.419 49.666Z" fill="black"/>
<path d="M161.419 0.332688H6.58027C3.17382 0.332688 0.386719 3.10769 0.386719 6.49935V43.4993C0.386719 46.891 3.17382 49.666 6.58027 49.666H161.419C164.825 49.666 167.613 46.891 167.613 43.4993V6.49935C167.613 3.10769 164.825 0.332688 161.419 0.332688ZM161.419 1.31935C164.288 1.31935 166.622 3.64345 166.622 6.49935V43.4993C166.622 46.3557 164.288 48.6798 161.419 48.6798H6.58027C3.71191 48.6798 1.37769 46.3557 1.37769 43.4993V6.49935C1.37769 3.64345 3.71191 1.31935 6.58027 1.31935H161.419Z" fill="#A6A6A6"/>
<path d="M59.1239 12.9662C59.1239 13.9995 58.8165 14.8223 58.201 15.4362C57.5019 16.1661 56.5907 16.5312 55.4705 16.5312C54.3978 16.5312 53.4858 16.1613 52.7357 15.4203C51.9843 14.6798 51.6094 13.7616 51.6094 12.666C51.6094 11.5699 51.9843 10.6522 52.7357 9.91122C53.4858 9.17072 54.3978 8.80023 55.4705 8.80023C56.0028 8.80023 56.5124 8.90383 56.9963 9.11054C57.4801 9.31774 57.8682 9.59277 58.1585 9.93724L57.5053 10.5881C57.0132 10.0027 56.3358 9.71031 55.4705 9.71031C54.6882 9.71031 54.0117 9.98398 53.4408 10.5317C52.8698 11.08 52.5844 11.7911 52.5844 12.666C52.5844 13.5409 52.8698 14.2519 53.4408 14.8003C54.0117 15.348 54.6882 15.6217 55.4705 15.6217C56.3005 15.6217 56.9924 15.3465 57.5464 14.7955C57.906 14.4364 58.114 13.9374 58.1696 13.2966H55.4705V12.4077H59.0721C59.1069 12.601 59.1239 12.7865 59.1239 12.9662" fill="white"/>
<path d="M59.1247 12.9659H59.0008C58.9998 13.9756 58.7037 14.7599 58.1143 15.3487L58.1129 15.3497L58.1124 15.3507C57.4355 16.0554 56.5654 16.4061 55.4714 16.4076C54.4273 16.4061 53.5534 16.0516 52.8236 15.3328C52.0955 14.6125 51.7354 13.7333 51.7341 12.6657C51.7354 11.5976 52.0955 10.7189 52.8236 9.9991C53.5534 9.27982 54.4273 8.92475 55.4714 8.92327C55.9877 8.92327 56.4793 9.02354 56.9482 9.22346C57.4175 9.42486 57.7883 9.6888 58.0645 10.0165L58.1594 9.93694L58.0718 9.84975L57.4185 10.5011L57.5061 10.5878L57.6015 10.5088C57.0865 9.89452 56.3637 9.58483 55.4714 9.58668C54.66 9.58569 53.9463 9.87429 53.3559 10.4429C52.7598 11.0133 52.4603 11.7643 52.4613 12.6657C52.4603 13.5671 52.7598 14.3181 53.3559 14.8885C53.9463 15.4571 54.66 15.7457 55.4714 15.7447C56.3288 15.7462 57.0595 15.4566 57.6348 14.8824C58.019 14.4988 58.2368 13.9675 58.2939 13.3069L58.3054 13.173H55.5952V12.5308H59.0729V12.4074L58.9509 12.4291C58.9849 12.6161 59.0008 12.7938 59.0008 12.9659H59.1247H59.2486C59.2486 12.7784 59.2311 12.5858 59.1948 12.3854L59.1765 12.2841H55.3475V13.2963V13.4196H58.1704V13.2963L58.047 13.2857C57.9924 13.9063 57.794 14.3736 57.4596 14.708C56.9274 15.236 56.2742 15.4966 55.4714 15.498C54.718 15.4971 54.0788 15.2388 53.5277 14.7113C52.9819 14.1857 52.7104 13.5146 52.7091 12.6657C52.7104 11.8168 52.9819 11.1457 53.5277 10.6201C54.0788 10.0926 54.718 9.83433 55.4714 9.83334C56.309 9.83532 56.9415 10.1108 57.4113 10.6673L57.4984 10.7704L58.247 10.0241L58.3272 9.94422L58.2541 9.85789C57.9498 9.49665 57.5444 9.20989 57.0459 8.99702C56.5466 8.78353 56.0196 8.6766 55.4714 8.6766C54.3702 8.67561 53.4198 9.06103 52.649 9.82372C51.8753 10.5849 51.4853 11.5418 51.4863 12.6657C51.4853 13.7891 51.8753 14.7465 52.6495 15.5082C53.4198 16.2704 54.3702 16.6553 55.4714 16.6543C56.6182 16.6553 57.5695 16.276 58.2914 15.5211L58.2019 15.4359L58.2894 15.5231C58.9311 14.8847 59.2494 14.0224 59.2486 12.9659H59.1247Z" fill="white"/>
<path d="M64.833 9.87432H61.4483V12.2206H64.5006V13.1099H61.4483V15.4561H64.833V16.3652H60.4941V8.96523H64.833V9.87432Z" fill="white"/>
<path d="M64.8338 9.87599V9.75266H61.3253V12.3456H64.3776V12.9878L61.3253 12.9882V15.5811H64.7099V16.2436H60.6188V9.09023H64.7099V9.87599H64.8338V9.75266V9.87599H64.9577V8.9669V8.84357H60.3711V16.4902H64.9577V15.4578V15.3345H61.573V13.2349H64.6253V12.2223V12.0989H61.573V9.99932H64.9577V9.87599H64.8338" fill="white"/>
<path d="M68.8616 16.3652H67.9059V9.87432H65.8301V8.96523H70.9374V9.87432H68.8616V16.3652Z" fill="white"/>
<path d="M68.8604 16.3669V16.2436H68.0287V9.75266H65.9528V9.09023H70.8124V9.75266H68.7366V16.3669H68.8604V16.2436V16.3669H68.9843V9.99932H71.0601V8.9669V8.84357H65.7051V9.87599V9.99932H67.7809V16.4902H68.8604H68.9843V16.3669H68.8604" fill="white"/>
<path d="M74.6328 16.3652V8.96523H75.5875V16.3652H74.6328Z" fill="white"/>
<path d="M74.6317 16.3669H74.7556V9.09023H75.4625V16.2436H74.6317V16.3669H74.7556H74.6317V16.4902H75.5863H75.7102V8.84357H74.6317H74.5078V16.4902H74.6317V16.3669Z" fill="white"/>
<path d="M79.8224 16.3652H78.8667V9.87432H76.791V8.96523H81.8982V9.87432H79.8224V16.3652Z" fill="white"/>
<path d="M79.8232 16.3669V16.2436H78.9914V9.75266H76.9157V9.09023H81.7752V9.75266H79.6993V16.3669H79.8232V16.2436V16.3669H79.9471V9.99932H82.0229V8.9669V8.84357H76.668V9.87599V9.99932H78.7437V16.4902H79.8232H79.9471V16.3669H79.8232" fill="white"/>
<path d="M86.8234 14.7902C87.3735 15.3447 88.0466 15.6217 88.8426 15.6217C89.6386 15.6217 90.3121 15.3447 90.8613 14.7902C91.4119 14.2356 91.6878 13.5269 91.6878 12.666C91.6878 11.8051 91.4119 11.0963 90.8613 10.5418C90.3121 9.98731 89.6386 9.71031 88.8426 9.71031C88.0466 9.71031 87.3735 9.98731 86.8234 10.5418C86.2742 11.0963 85.9984 11.8051 85.9984 12.666C85.9984 13.5269 86.2742 14.2356 86.8234 14.7902ZM91.5678 15.4097C90.8371 16.1578 89.9283 16.5312 88.8426 16.5312C87.7558 16.5312 86.8476 16.1578 86.1185 15.4097C85.3872 14.6624 85.0234 13.7476 85.0234 12.666C85.0234 11.5844 85.3872 10.6695 86.1185 9.92232C86.8476 9.17405 87.7558 8.80023 88.8426 8.80023C89.9226 8.80023 90.8289 9.17603 91.5629 9.92713C92.296 10.6782 92.6628 11.5911 92.6628 12.666C92.6628 13.7476 92.2969 14.6624 91.5678 15.4097Z" fill="white"/>
<path d="M86.8223 14.7899L86.7342 14.8766C87.3048 15.4533 88.0165 15.7462 88.8415 15.7447C89.666 15.7462 90.3787 15.4533 90.9483 14.8766C91.5226 14.2994 91.8114 13.5526 91.8106 12.6657C91.8114 11.7788 91.5226 11.032 90.9483 10.4548C90.3787 9.87812 89.666 9.5852 88.8415 9.58668C88.0165 9.5852 87.3048 9.87812 86.7342 10.4548C86.1613 11.032 85.8719 11.7788 85.8734 12.6657C85.8719 13.5526 86.1613 14.2994 86.7342 14.8766L86.8223 14.7899L86.9104 14.7032C86.3849 14.1707 86.1222 13.501 86.1212 12.6657C86.1222 11.8304 86.3849 11.1607 86.9104 10.6282C87.4406 10.0959 88.074 9.83483 88.8415 9.83335C89.6084 9.83483 90.2432 10.0959 90.7721 10.6282C91.2986 11.1607 91.5613 11.8304 91.5623 12.6657C91.5613 13.501 91.2986 14.1707 90.7721 14.7032C90.2432 15.2355 89.6084 15.4966 88.8415 15.498C88.074 15.4966 87.4406 15.2355 86.9104 14.7032L86.8223 14.7899ZM91.5667 15.4094L91.4781 15.3237C90.7678 16.0482 89.8992 16.4061 88.8415 16.4076C87.7833 16.4061 86.9147 16.0482 86.2058 15.3237L86.2024 15.3198L86.2058 15.3237C85.497 14.5966 85.1472 13.7198 85.1462 12.6657C85.1472 11.6116 85.497 10.7348 86.2058 10.0077C86.9147 9.28316 87.7833 8.92475 88.8415 8.92327C89.8924 8.92475 90.759 9.28464 91.4733 10.013C92.1845 10.7434 92.5363 11.6188 92.5378 12.6657C92.5363 13.7198 92.1855 14.5966 91.4781 15.3237L91.5667 15.4094L91.6557 15.4951C92.4066 14.7272 92.7864 13.7747 92.7856 12.6657C92.7864 11.563 92.4051 10.6124 91.6508 9.84111C90.896 9.06683 89.9505 8.67525 88.8415 8.6766C87.7267 8.67525 86.7783 9.06498 86.0283 9.8363V9.83581C85.2759 10.6042 84.8974 11.5567 84.8984 12.6657C84.8974 13.7747 85.2759 14.7272 86.0283 15.4956L86.0316 15.499L86.0283 15.4951C86.7783 16.2664 87.7267 16.6553 88.8415 16.6543C89.9558 16.6553 90.9042 16.2664 91.6557 15.4951L91.5667 15.4094" fill="white"/>
<path d="M94.002 16.3652V8.96523H95.1642L98.7763 14.7219H98.8174L98.7763 13.2958V8.96523H99.732V16.3652H98.7352L94.9561 10.3295H94.915L94.9561 11.7561V16.3652H94.002Z" fill="white"/>
<path d="M94.0028 16.3669H94.1266V9.09023H95.0963L98.7084 14.8469H98.8183H98.9455L98.901 13.2957V9.09023H99.6089V16.2436H98.8047L95.0257 10.2079H94.9158H94.7886L94.8331 11.7598V16.2436H94.0028V16.3669H94.1266H94.0028V16.4902H94.9569H95.0808V11.7558L95.0397 10.3279L94.9158 10.3312V10.4545H94.9569V10.3312L94.8519 10.3968L98.6672 16.4902H99.7328H99.8567V8.84357H98.7771H98.6533V13.299L98.6944 14.7269L98.8183 14.7236V14.6003H98.7771V14.7236L98.8822 14.6581L95.2337 8.84357H94.0028H93.8789V16.4902H94.0028V16.3669Z" fill="white"/>
<path d="M132.85 37.3321H135.162V21.9139H132.85V37.3321ZM153.669 27.4679L151.02 34.1524H150.94L148.191 27.4679H145.701L149.824 36.8107L147.473 42.0076H149.885L156.24 27.4679H153.669ZM140.561 35.5809C139.803 35.5809 138.748 35.2041 138.748 34.2714C138.748 33.0814 140.063 32.6252 141.198 32.6252C142.215 32.6252 142.692 32.8433 143.31 33.1412C143.13 34.5692 141.895 35.5809 140.561 35.5809V35.5809ZM140.84 27.1305C139.167 27.1305 137.434 27.8648 136.716 29.4913L138.768 30.344C139.206 29.4913 140.022 29.2133 140.88 29.2133C142.075 29.2133 143.29 29.9277 143.31 31.1972V31.3557C142.891 31.1177 141.996 30.7607 140.899 30.7607C138.688 30.7607 136.436 31.9704 136.436 34.2318C136.436 36.2948 138.25 37.624 140.281 37.624C141.836 37.624 142.692 36.9298 143.231 36.1166H143.31V37.3065H145.541V31.3952C145.541 28.6583 143.49 27.1305 140.84 27.1305V27.1305ZM126.555 29.3448H123.268V24.0598H126.555C128.283 24.0598 129.264 25.4843 129.264 26.7022C129.264 27.8971 128.283 29.3448 126.555 29.3448ZM126.496 21.9139H120.957V37.3321H123.268V31.4906H126.496C129.057 31.4906 131.576 29.644 131.576 26.7022C131.576 23.7606 129.057 21.9139 126.496 21.9139ZM96.2948 35.5837C94.698 35.5837 93.361 34.2526 93.361 32.4243C93.361 30.5767 94.698 29.2254 96.2948 29.2254C97.8713 29.2254 99.1085 30.5767 99.1085 32.4243C99.1085 34.2526 97.8713 35.5837 96.2948 35.5837V35.5837ZM98.9488 28.3312H98.8689C98.3503 27.7154 97.352 27.159 96.095 27.159C93.4607 27.159 91.0462 29.4638 91.0462 32.4243C91.0462 35.365 93.4607 37.65 96.095 37.65C97.352 37.65 98.3503 37.0935 98.8689 36.4581H98.9488V37.213C98.9488 39.2202 97.8713 40.293 96.1351 40.293C94.7183 40.293 93.8402 39.2794 93.4806 38.4252L91.4653 39.2596C92.044 40.6505 93.5808 42.3594 96.1351 42.3594C98.8491 42.3594 101.144 40.7695 101.144 36.8951V27.477H98.9488V28.3312ZM102.74 37.3321H105.055V21.9134H102.74V37.3321ZM108.468 32.2455C108.408 30.2187 110.044 29.1858 111.222 29.1858C112.14 29.1858 112.918 29.6425 113.177 30.2987L108.468 32.2455ZM115.652 30.4972C115.214 29.3245 113.876 27.159 111.142 27.159C108.428 27.159 106.173 29.2851 106.173 32.4045C106.173 35.3453 108.408 37.65 111.401 37.65C113.816 37.65 115.214 36.1796 115.792 35.3254L113.996 34.133C113.398 35.0075 112.579 35.5837 111.401 35.5837C110.224 35.5837 109.386 35.0471 108.847 33.9943L115.891 31.0931L115.652 30.4972ZM59.5284 28.7685V30.9938H64.8765C64.7169 32.2455 64.2978 33.1595 63.6591 33.7954C62.8811 34.5705 61.6637 35.4247 59.5284 35.4247C56.2355 35.4247 53.6614 32.7822 53.6614 29.5037C53.6614 26.2253 56.2355 23.5824 59.5284 23.5824C61.3046 23.5824 62.6014 24.278 63.5594 25.1721L65.1359 23.6026C63.799 22.3307 62.0227 21.3571 59.5284 21.3571C55.0181 21.3571 51.2266 25.0132 51.2266 29.5037C51.2266 33.9943 55.0181 37.65 59.5284 37.65C61.9632 37.65 63.799 36.8556 65.2356 35.365C66.7124 33.8946 67.1716 31.8283 67.1716 30.1595C67.1716 29.6425 67.1318 29.166 67.0516 28.7685H59.5284ZM73.2519 35.5837C71.6551 35.5837 70.278 34.2723 70.278 32.4045C70.278 30.5169 71.6551 29.2254 73.2519 29.2254C74.8481 29.2254 76.2252 30.5169 76.2252 32.4045C76.2252 34.2723 74.8481 35.5837 73.2519 35.5837V35.5837ZM73.2519 27.159C70.338 27.159 67.9631 29.3645 67.9631 32.4045C67.9631 35.4247 70.338 37.65 73.2519 37.65C76.1653 37.65 78.5401 35.4247 78.5401 32.4045C78.5401 29.3645 76.1653 27.159 73.2519 27.159ZM84.7883 35.5837C83.1921 35.5837 81.8149 34.2723 81.8149 32.4045C81.8149 30.5169 83.1921 29.2254 84.7883 29.2254C86.3846 29.2254 87.7617 30.5169 87.7617 32.4045C87.7617 34.2723 86.3846 35.5837 84.7883 35.5837ZM84.7883 27.159C81.8745 27.159 79.5001 29.3645 79.5001 32.4045C79.5001 35.4247 81.8745 37.65 84.7883 37.65C87.7017 37.65 90.0766 35.4247 90.0766 32.4045C90.0766 29.3645 87.7017 27.159 84.7883 27.159Z" fill="white"/>
<path d="M13.4055 40.2793L13.3135 40.1916C12.953 39.8119 12.7402 39.2222 12.7402 38.4586V38.6383V11.362C12.7402 11.3595 12.7402 11.3576 12.7402 11.3557C12.7402 11.358 12.7402 11.36 12.7402 11.3624V11.5426C12.7402 10.7158 12.9883 10.093 13.4041 9.71952L28.7514 24.9999L13.4055 40.2793ZM12.7402 11.3542C12.7402 11.2862 12.7421 11.2202 12.7456 11.1552C12.7421 11.2197 12.7402 11.2862 12.7402 11.3542ZM12.7456 11.1523C12.7456 11.1514 12.7456 11.1504 12.7459 11.1494C12.7456 11.1504 12.7456 11.1514 12.7456 11.1523ZM12.7459 11.1437C12.7459 11.1432 12.7459 11.1427 12.7459 11.1422C12.7459 11.1427 12.7459 11.1432 12.7459 11.1437Z" fill="url(#paint0_linear_3393_4545)"/>
<path d="M33.867 30.2754L33.9836 30.2094L40.0445 26.7806C40.6224 26.4535 41.0075 26.057 41.1996 25.6374C41.008 26.057 40.6228 26.454 40.0445 26.7811L33.9836 30.2099L33.867 30.2754V30.2754ZM33.8684 30.0947L28.752 24.9996L33.8679 19.9053L40.0445 23.3991C40.8289 23.8428 41.2692 24.4147 41.3428 24.9991C41.3428 24.9996 41.3428 25.0006 41.3428 25.0014C41.2692 25.5844 40.8289 26.1568 40.0445 26.6004L33.8684 30.0947" fill="url(#paint1_linear_3393_4545)"/>
<path d="M14.4986 40.8613C14.0699 40.8613 13.6958 40.7226 13.404 40.4605L13.4045 40.46C13.6963 40.7221 14.0708 40.8613 14.4996 40.8613C14.5367 40.8613 14.5745 40.8603 14.6128 40.8585C14.574 40.8603 14.5357 40.8613 14.4986 40.8613V40.8613ZM14.4991 40.6806C14.0704 40.6811 13.6963 40.5419 13.4045 40.2798V40.2794L28.7504 25L33.8669 30.0952L15.8868 40.2669C15.3893 40.5477 14.918 40.6806 14.4991 40.6806V40.6806ZM13.4002 40.4572C13.3731 40.4326 13.3464 40.4066 13.3203 40.3796L13.4002 40.4572Z" fill="url(#paint2_linear_3393_4545)"/>
<path d="M28.7517 25L13.4043 9.71962C13.696 9.45803 14.0696 9.31928 14.4978 9.31928C14.9179 9.31928 15.3896 9.45272 15.888 9.73405L33.8677 19.9057L28.7517 25V25ZM33.9834 19.7906L15.888 9.55398C15.3896 9.27253 14.9179 9.13909 14.4978 9.13909C14.4958 9.13909 14.4945 9.13909 14.4925 9.13909C14.495 9.13909 14.4968 9.13909 14.4998 9.13909C14.9189 9.13909 15.3901 9.27204 15.888 9.55348L33.9834 19.7906V19.7906Z" fill="url(#paint3_linear_3393_4545)"/>
<path d="M14.6128 40.8594C15.0022 40.8372 15.4334 40.7037 15.8868 40.4479L33.8654 30.2768L15.8868 40.4479C15.4338 40.7042 15.0022 40.8372 14.6128 40.8594V40.8594ZM13.404 40.4614L13.4002 40.458C13.4016 40.459 13.403 40.4604 13.404 40.4614ZM13.3203 40.3805L13.3125 40.3728V40.3723C13.3155 40.3752 13.3178 40.378 13.3203 40.3805Z" fill="black"/>
<path d="M33.8652 30.2754L33.9819 30.2094L33.8652 30.2754Z" fill="url(#paint4_linear_3393_4545)"/>
<path d="M14.4996 40.8613C14.0708 40.8613 13.6963 40.7221 13.4045 40.46L13.404 40.4605C13.403 40.4595 13.4016 40.4582 13.4002 40.4572L13.3203 40.3796C13.3178 40.3771 13.3155 40.3743 13.3125 40.3714L13.4045 40.2798C13.6963 40.5419 14.0703 40.6811 14.4991 40.6806C14.918 40.6806 15.3893 40.5477 15.8868 40.2669L33.8669 30.0952L33.9821 30.2099L33.8654 30.2759L15.8868 40.4471C15.4334 40.7028 15.0022 40.8363 14.6128 40.8585C14.5745 40.8603 14.5367 40.8613 14.4996 40.8613" fill="url(#paint5_linear_3393_4545)"/>
<path d="M13.3135 40.373C12.953 39.9933 12.7402 39.4036 12.7402 38.6401V38.6396C12.7402 39.4036 12.953 39.9928 13.3135 40.3726V40.373" fill="black"/>
<path d="M13.3135 40.3711C12.953 39.9914 12.7402 39.4022 12.7402 38.6381V38.4584C12.7402 39.222 12.953 39.8117 13.3135 40.1914L13.4055 40.2791L13.3135 40.3711" fill="url(#paint6_linear_3393_4545)"/>
<path d="M13.3125 40.3711L13.4045 40.2791V40.2795L13.3125 40.3711" fill="url(#paint7_linear_3393_4545)"/>
<path d="M41.1992 25.6387C41.2945 25.4305 41.3424 25.2166 41.3424 25.0026C41.3424 25.0023 41.3424 25.0018 41.3424 25.0018C41.3424 25.2161 41.2945 25.43 41.1992 25.6387Z" fill="black"/>
<path d="M33.9824 30.2109L33.8672 30.0962L40.0433 26.602C40.8276 26.1583 41.268 25.5859 41.3416 25.0029C41.3416 25.2169 41.2936 25.4308 41.1984 25.639C41.0062 26.0585 40.6211 26.4551 40.0433 26.7821L33.9824 30.2109Z" fill="url(#paint8_linear_3393_4545)"/>
<path d="M41.3421 25V24.9995C41.3416 24.3544 40.9085 23.7093 40.0438 23.2198L33.9829 19.791H33.9824L33.9829 19.7906L40.0438 23.2193C40.9095 23.7088 41.3431 24.3548 41.3421 25Z" fill="#404040"/>
<path d="M41.3421 25C41.2685 24.4156 40.8281 23.8438 40.0438 23.4L33.8672 19.9062L33.9824 19.7915H33.9829L40.0438 23.2203C40.9085 23.7098 41.3416 24.3548 41.3421 25Z" fill="url(#paint9_linear_3393_4545)"/>
<path d="M12.7402 11.3555C12.7402 11.355 12.7402 11.3545 12.7402 11.354C12.7402 11.3545 12.7402 11.355 12.7402 11.3555ZM12.7456 11.1551C12.7456 11.1541 12.7456 11.1531 12.7456 11.1521C12.7456 11.1531 12.7456 11.1541 12.7456 11.1551ZM12.7459 11.1493C12.7459 11.1473 12.7459 11.1454 12.7459 11.1435C12.7459 11.1454 12.7459 11.1473 12.7459 11.1493ZM12.7459 11.142C12.8177 9.87497 13.5096 9.14311 14.4884 9.1388C14.064 9.14126 13.6944 9.28001 13.405 9.53963V9.53914L13.4016 9.54259C13.3711 9.56997 13.3421 9.59895 13.3135 9.6288C12.9883 9.9713 12.7832 10.4844 12.7459 11.142Z" fill="#404040"/>
<path d="M12.7402 11.543V11.3628C12.7402 11.3603 12.7402 11.3583 12.7402 11.356C12.7402 11.3555 12.7402 11.355 12.7402 11.3545C12.7402 11.2866 12.7421 11.2201 12.7456 11.1556C12.7456 11.1546 12.7456 11.1536 12.7456 11.1526C12.7456 11.1518 12.7456 11.1508 12.7459 11.1498C12.7459 11.1478 12.7459 11.146 12.7459 11.144C12.7459 11.1435 12.7459 11.143 12.7459 11.1425C12.7832 10.4849 12.9883 9.97182 13.3135 9.62933L13.4041 9.71986C12.9883 10.0933 12.7402 10.7161 12.7402 11.543V11.543ZM13.4016 9.54312L13.405 9.53967C13.4041 9.54115 13.4026 9.54213 13.4016 9.54312Z" fill="url(#paint10_linear_3393_4545)"/>
<path d="M33.8664 19.9062L15.8868 9.73458C15.3883 9.45326 14.9166 9.31981 14.4966 9.31981C14.0684 9.31981 13.6948 9.45856 13.4031 9.72015L13.3125 9.62962C13.3411 9.59978 13.3701 9.57079 13.4006 9.54341C13.4016 9.54242 13.403 9.54144 13.404 9.54045C13.6934 9.28084 14.063 9.14209 14.4874 9.13962C14.4884 9.13962 14.4898 9.13962 14.4913 9.13962C14.4932 9.13962 14.4946 9.13962 14.4966 9.13962C14.9166 9.13962 15.3883 9.27306 15.8868 9.55451L33.9821 19.7912L33.9816 19.7916L33.8664 19.9062Z" fill="url(#paint11_linear_3393_4545)"/>
<defs>
<linearGradient id="paint0_linear_3393_4545" x1="27.3906" y1="11.0742" x2="6.69236" y2="31.8627" gradientUnits="userSpaceOnUse">
<stop stop-color="#00A0FF"/>
<stop offset="0.00657445" stop-color="#00A1FF"/>
<stop offset="0.2601" stop-color="#00BEFF"/>
<stop offset="0.5122" stop-color="#00D2FF"/>
<stop offset="0.7604" stop-color="#00DFFF"/>
<stop offset="1" stop-color="#00E3FF"/>
</linearGradient>
<linearGradient id="paint1_linear_3393_4545" x1="42.2985" y1="25.0003" x2="12.3254" y2="25.0003" gradientUnits="userSpaceOnUse">
<stop stop-color="#FFE000"/>
<stop offset="0.4087" stop-color="#FFBD00"/>
<stop offset="0.7754" stop-color="#FFA500"/>
<stop offset="1" stop-color="#FF9C00"/>
</linearGradient>
<linearGradient id="paint2_linear_3393_4545" x1="31.1394" y1="27.8309" x2="3.07108" y2="56.0216" gradientUnits="userSpaceOnUse">
<stop stop-color="#FF3A44"/>
<stop offset="1" stop-color="#C31162"/>
</linearGradient>
<linearGradient id="paint3_linear_3393_4545" x1="9.42643" y1="0.549658" x2="21.9601" y2="13.1379" gradientUnits="userSpaceOnUse">
<stop stop-color="#32A071"/>
<stop offset="0.0685" stop-color="#2DA771"/>
<stop offset="0.4762" stop-color="#15CF74"/>
<stop offset="0.8009" stop-color="#06E775"/>
<stop offset="1" stop-color="#00F076"/>
</linearGradient>
<linearGradient id="paint4_linear_3393_4545" x1="42.2963" y1="25.0003" x2="12.3249" y2="25.0003" gradientUnits="userSpaceOnUse">
<stop stop-color="#CCB300"/>
<stop offset="0.4087" stop-color="#CC9700"/>
<stop offset="0.7754" stop-color="#CC8400"/>
<stop offset="1" stop-color="#CC7D00"/>
</linearGradient>
<linearGradient id="paint5_linear_3393_4545" x1="31.1394" y1="27.8309" x2="3.07108" y2="56.0216" gradientUnits="userSpaceOnUse">
<stop stop-color="#CC2E36"/>
<stop offset="1" stop-color="#9C0E4E"/>
</linearGradient>
<linearGradient id="paint6_linear_3393_4545" x1="27.3906" y1="11.074" x2="6.69232" y2="31.8624" gradientUnits="userSpaceOnUse">
<stop stop-color="#008DE0"/>
<stop offset="0.00657445" stop-color="#008DE0"/>
<stop offset="0.2601" stop-color="#00A7E0"/>
<stop offset="0.5122" stop-color="#00B8E0"/>
<stop offset="0.7604" stop-color="#00C4E0"/>
<stop offset="1" stop-color="#00C7E0"/>
</linearGradient>
<linearGradient id="paint7_linear_3393_4545" x1="31.1396" y1="27.8306" x2="3.07129" y2="56.0215" gradientUnits="userSpaceOnUse">
<stop stop-color="#E0333C"/>
<stop offset="1" stop-color="#AB0F56"/>
</linearGradient>
<linearGradient id="paint8_linear_3393_4545" x1="42.2972" y1="25.0018" x2="12.3241" y2="25.0018" gradientUnits="userSpaceOnUse">
<stop stop-color="#E0C500"/>
<stop offset="0.4087" stop-color="#E0A600"/>
<stop offset="0.7754" stop-color="#E09100"/>
<stop offset="1" stop-color="#E08900"/>
</linearGradient>
<linearGradient id="paint9_linear_3393_4545" x1="42.2977" y1="25.0012" x2="12.3247" y2="25.0012" gradientUnits="userSpaceOnUse">
<stop stop-color="#FFE840"/>
<stop offset="0.4087" stop-color="#FFCE40"/>
<stop offset="0.7754" stop-color="#FFBC40"/>
<stop offset="1" stop-color="#FFB540"/>
</linearGradient>
<linearGradient id="paint10_linear_3393_4545" x1="27.3905" y1="11.0745" x2="6.69232" y2="31.863" gradientUnits="userSpaceOnUse">
<stop stop-color="#40B8FF"/>
<stop offset="0.00657445" stop-color="#40B9FF"/>
<stop offset="0.2601" stop-color="#40CEFF"/>
<stop offset="0.5122" stop-color="#40DDFF"/>
<stop offset="0.7604" stop-color="#40E7FF"/>
<stop offset="1" stop-color="#40EAFF"/>
</linearGradient>
<linearGradient id="paint11_linear_3393_4545" x1="9.42518" y1="0.550192" x2="21.9588" y2="13.1385" gradientUnits="userSpaceOnUse">
<stop stop-color="#65B895"/>
<stop offset="0.0685" stop-color="#62BD95"/>
<stop offset="0.4762" stop-color="#50DB97"/>
<stop offset="0.8009" stop-color="#44ED98"/>
<stop offset="1" stop-color="#40F498"/>
</linearGradient>
</defs>
</svg>
