<svg width="148" height="50" viewBox="0 0 148 50" fill="none" xmlns="http://www.w3.org/2000/svg">
<g clip-path="url(#clip0_3393_4510)">
<path d="M136.214 0.0001625H11.7925C11.3389 0.0001625 10.8908 0.0001625 10.4385 0.0026625C10.0598 0.0051625 9.68422 0.012425 9.30194 0.0185375C8.47145 0.0284148 7.64291 0.102258 6.82352 0.239425C6.00529 0.379578 5.21269 0.643807 4.47253 1.02318C3.73327 1.40575 3.05779 1.90287 2.47059 2.4965C1.8803 3.08846 1.38826 3.77268 1.01337 4.52286C0.637445 5.27155 0.376778 6.07384 0.240371 6.90201C0.102668 7.72914 0.028568 8.56581 0.0187375 9.40451C0.00725999 9.78776 0.00604793 10.1723 0 10.5556V39.4484C0.00604793 39.8365 0.00725999 40.2125 0.0187375 40.6008C0.028571 41.4394 0.102671 42.2761 0.240371 43.1032C0.376401 43.9318 0.637084 44.7346 1.01337 45.4835C1.38809 46.2313 1.8802 46.9127 2.47059 47.5014C3.05556 48.0977 3.73148 48.5951 4.47253 48.9748C5.21268 49.3552 6.0052 49.621 6.82352 49.7633C7.64305 49.8994 8.4715 49.9732 9.30194 49.9843C9.68422 49.9928 10.0598 49.9977 10.4385 49.9977C10.8908 50.0002 11.3389 50.0002 11.7925 50.0002H136.214C136.659 50.0002 137.11 50.0002 137.555 49.9977C137.932 49.9977 138.318 49.9928 138.695 49.9843C139.524 49.9738 140.351 49.8999 141.169 49.7633C141.99 49.62 142.785 49.3542 143.529 48.9748C144.269 48.5949 144.944 48.0975 145.529 47.5014C146.118 46.9104 146.611 46.2295 146.99 45.4835C147.364 44.734 147.622 43.9313 147.756 43.1032C147.894 42.276 147.971 41.4395 147.986 40.6008C147.99 40.2125 147.99 39.8365 147.99 39.4484C148 38.9943 148 38.5427 148 38.0812V11.9203C148 11.4626 148 11.0085 147.99 10.5556C147.99 10.1723 147.99 9.78776 147.986 9.40446C147.971 8.56569 147.894 7.72921 147.756 6.90196C147.622 6.07426 147.363 5.27204 146.99 4.52281C146.227 3.01916 145.016 1.79519 143.529 1.02306C142.785 0.644622 141.99 0.380463 141.169 0.239312C140.351 0.101541 139.524 0.0276722 138.695 0.0183625C138.318 0.0122625 137.932 0.0049375 137.555 0.0025C137.11 0 136.659 0 136.214 0V0.0001625Z" fill="#A6A6A6"/>
<path d="M10.4449 48.9062C10.068 48.9062 9.70032 48.9014 9.32645 48.8929C8.55195 48.8827 7.77925 48.8145 7.01471 48.689C6.3018 48.5649 5.6112 48.3341 4.96566 48.0041C4.32604 47.6769 3.74265 47.2478 3.23785 46.7334C2.72575 46.225 2.29939 45.6353 1.97569 44.9878C1.64842 44.336 1.42193 43.6374 1.30411 42.9163C1.17688 42.1414 1.10804 41.3579 1.09818 40.5725C1.09034 40.3089 1.08008 39.4311 1.08008 39.4311V10.5554C1.08008 10.5554 1.09101 9.69116 1.09825 9.43725C1.10768 8.6531 1.17612 7.87082 1.30297 7.09716C1.42101 6.37406 1.64768 5.67344 1.97512 5.01954C2.29764 4.37243 2.72162 3.78233 3.23064 3.2721C3.73909 2.75703 4.32434 2.32576 4.96505 1.99401C5.60911 1.66512 6.29841 1.43592 7.00987 1.31409C7.77693 1.1873 8.5523 1.11875 9.32949 1.10901L10.4455 1.09375H137.549L138.678 1.10963C139.449 1.11887 140.217 1.18681 140.977 1.31286C141.696 1.43622 142.392 1.66702 143.044 1.99768C144.327 2.66623 145.371 3.72395 146.03 5.02259C146.353 5.67197 146.576 6.36688 146.692 7.08374C146.821 7.86374 146.893 8.65217 146.907 9.44275C146.911 9.79675 146.911 10.177 146.911 10.5554C146.921 11.0242 146.921 11.4703 146.921 11.9202V38.081C146.921 38.5351 146.921 38.9783 146.911 39.425C146.911 39.8315 146.911 40.2039 146.906 40.5871C146.892 41.3636 146.821 42.138 146.695 42.904C146.579 43.6303 146.354 44.3344 146.027 44.9915C145.701 45.632 145.277 46.2166 144.771 46.7236C144.265 47.2409 143.681 47.6724 143.04 48.0018C142.39 48.3342 141.695 48.5659 140.977 48.689C140.212 48.8152 139.44 48.8834 138.665 48.8929C138.303 48.9014 137.924 48.9062 137.555 48.9062L136.215 48.9087L10.4449 48.9062Z" fill="black"/>
<path d="M30.6333 25.3764C30.6466 24.3331 30.9208 23.3101 31.4304 22.4026C31.94 21.4952 32.6684 20.7328 33.5479 20.1863C32.9892 19.3799 32.2521 18.7162 31.3952 18.248C30.5383 17.7798 29.5852 17.52 28.6116 17.4892C26.5347 17.2689 24.5213 18.7453 23.463 18.7453C22.3841 18.7453 20.7547 17.5111 19 17.5476C17.865 17.5846 16.7589 17.9182 15.7894 18.5158C14.8199 19.1133 14.0201 19.9545 13.4679 20.9574C11.0759 25.1429 12.8601 31.2942 15.1514 34.6775C16.2978 36.3342 17.6376 38.1848 19.3907 38.1191C21.1062 38.0472 21.7469 37.0135 23.8177 37.0135C25.8692 37.0135 26.4704 38.1191 28.259 38.0774C30.0998 38.0472 31.2596 36.4134 32.3658 34.741C33.1895 33.5605 33.8233 32.2559 34.2438 30.8753C33.1743 30.4182 32.2617 29.653 31.6196 28.6751C30.9776 27.6972 30.6345 26.55 30.6333 25.3764Z" fill="white"/>
<path d="M27.2556 15.2637C28.2593 14.0459 28.7537 12.4807 28.634 10.9004C27.1006 11.0632 25.6841 11.8039 24.6669 12.9749C24.1695 13.547 23.7886 14.2125 23.5459 14.9335C23.3031 15.6545 23.2034 16.4167 23.2523 17.1766C24.0193 17.1846 24.7781 17.0166 25.4715 16.6852C26.165 16.3539 26.7749 15.8678 27.2556 15.2637Z" fill="white"/>
<path d="M52.3179 33.9246H46.4636L45.0578 38.1202H42.5781L48.1232 22.5977H50.6994L56.2445 38.1202H53.7226L52.3179 33.9246ZM47.07 31.9886H51.7104L49.4228 25.1795H49.3588L47.07 31.9886Z" fill="white"/>
<path d="M68.2197 32.4613C68.2197 35.9782 66.3573 38.2377 63.5467 38.2377C62.8347 38.2753 62.1267 38.1096 61.5036 37.7594C60.8805 37.4092 60.3676 36.8888 60.0235 36.2577H59.9703V41.8632H57.6719V26.8021H59.8967V28.6845H59.939C60.2988 28.0564 60.8204 27.5386 61.4482 27.1863C62.0761 26.834 62.7867 26.6603 63.5044 26.6837C66.3463 26.6837 68.2197 28.9542 68.2197 32.4613ZM65.8572 32.4613C65.8572 30.1701 64.6856 28.6637 62.8981 28.6637C61.1419 28.6637 59.9607 30.2018 59.9607 32.4613C59.9607 34.7416 61.1419 36.2687 62.8981 36.2687C64.6857 36.2687 65.8572 34.7733 65.8572 32.4613Z" fill="white"/>
<path d="M80.5439 32.4613C80.5439 35.9782 78.6815 38.2377 75.8709 38.2377C75.1589 38.2753 74.4509 38.1096 73.8278 37.7594C73.2047 37.4092 72.6918 36.8888 72.3477 36.2577H72.2946V41.8631H69.9961V26.8021H72.2209V28.6845H72.2631C72.623 28.0564 73.1446 27.5386 73.7724 27.1863C74.4003 26.834 75.1109 26.6603 75.8286 26.6837C78.6706 26.6837 80.5439 28.9542 80.5439 32.4613ZM78.1814 32.4613C78.1814 30.1701 77.0099 28.6637 75.2223 28.6637C73.4662 28.6637 72.2849 30.2018 72.2849 32.4613C72.2849 34.7416 73.4662 36.2687 75.2223 36.2687C77.0099 36.2687 78.1815 34.7733 78.1815 32.4613H78.1814Z" fill="white"/>
<path d="M88.6907 33.7943C88.861 35.3336 90.3406 36.3443 92.3625 36.3443C94.2998 36.3443 95.6936 35.3335 95.6936 33.9456C95.6936 32.7407 94.853 32.0193 92.8625 31.5249L90.8721 31.0403C88.0518 30.3518 86.7425 29.0188 86.7425 26.8557C86.7425 24.1775 89.0519 22.3379 92.3311 22.3379C95.5764 22.3379 97.8012 24.1775 97.8761 26.8557H95.5559C95.417 25.3066 94.15 24.3716 92.2984 24.3716C90.4469 24.3716 89.1799 25.3176 89.1799 26.6946C89.1799 27.792 89.9891 28.4378 91.9687 28.9321L93.6608 29.352C96.812 30.1052 98.1213 31.3845 98.1213 33.655C98.1213 36.559 95.8325 38.3779 92.1921 38.3779C88.7861 38.3779 86.4865 36.6018 86.3379 33.7941L88.6907 33.7943Z" fill="white"/>
<path d="M103.08 24.123V26.8013H105.209V28.6409H103.08V34.8799C103.08 35.8491 103.506 36.3008 104.442 36.3008C104.695 36.2963 104.948 36.2784 105.199 36.247V38.0756C104.778 38.1551 104.35 38.1911 103.922 38.1831C101.655 38.1831 100.771 37.3225 100.771 35.1276V28.6409H99.1426V26.8013H100.771V24.123H103.08Z" fill="white"/>
<path d="M106.443 32.4604C106.443 28.8997 108.518 26.6621 111.754 26.6621C115.001 26.6621 117.066 28.8996 117.066 32.4604C117.066 36.031 115.012 38.2588 111.754 38.2588C108.498 38.2588 106.443 36.031 106.443 32.4604ZM114.724 32.4604C114.724 30.0178 113.617 28.5762 111.754 28.5762C109.892 28.5762 108.785 30.0288 108.785 32.4604C108.785 34.9128 109.892 36.3435 111.754 36.3435C113.617 36.3435 114.724 34.9128 114.724 32.4604H114.724Z" fill="white"/>
<path d="M118.961 26.802H121.153V28.7283H121.206C121.355 28.1267 121.703 27.595 122.194 27.2227C122.684 26.8503 123.287 26.66 123.9 26.6836C124.165 26.6827 124.429 26.7117 124.687 26.7703V28.9431C124.353 28.8399 124.004 28.7924 123.654 28.8028C123.321 28.7891 122.988 28.8486 122.679 28.9772C122.37 29.1058 122.092 29.3005 121.864 29.5478C121.637 29.7952 121.465 30.0894 121.36 30.4102C121.256 30.7311 121.222 31.0709 121.259 31.4065V38.1192H118.961L118.961 26.802Z" fill="white"/>
<path d="M135.284 34.7944C134.975 36.8489 132.996 38.2588 130.463 38.2588C127.205 38.2588 125.184 36.053 125.184 32.5142C125.184 28.9644 127.216 26.6621 130.366 26.6621C133.464 26.6621 135.413 28.813 135.413 32.2444V33.0403H127.504V33.1807C127.467 33.5972 127.519 34.0167 127.655 34.4115C127.791 34.8063 128.009 35.1673 128.294 35.4705C128.579 35.7737 128.925 36.0121 129.308 36.17C129.691 36.3279 130.103 36.4016 130.516 36.3862C131.059 36.4377 131.604 36.3105 132.07 36.0237C132.536 35.7369 132.898 35.3058 133.102 34.7944L135.284 34.7944ZM127.515 31.4167H133.113C133.133 31.0423 133.077 30.6675 132.948 30.316C132.818 29.9645 132.618 29.6438 132.361 29.3741C132.103 29.1044 131.792 28.8915 131.449 28.7487C131.106 28.6059 130.737 28.5364 130.366 28.5444C129.992 28.5422 129.621 28.6149 129.275 28.7583C128.928 28.9017 128.613 29.113 128.348 29.3801C128.083 29.6471 127.873 29.9646 127.73 30.3142C127.587 30.6637 127.514 31.0385 127.515 31.4168V31.4167Z" fill="white"/>
<path d="M46.7828 10.9147C47.2647 10.8798 47.7482 10.9533 48.1986 11.1301C48.6489 11.3069 49.0548 11.5825 49.387 11.9371C49.7192 12.2916 49.9694 12.7162 50.1195 13.1803C50.2697 13.6444 50.316 14.1364 50.2553 14.6208C50.2553 17.0036 48.981 18.3733 46.7828 18.3733H44.1172V10.9147H46.7828ZM45.2634 17.3185H46.6548C46.9991 17.3393 47.3437 17.2822 47.6635 17.1514C47.9832 17.0207 48.2701 16.8195 48.5032 16.5625C48.7364 16.3056 48.9099 15.9993 49.0111 15.666C49.1124 15.3328 49.1388 14.9809 49.0885 14.636C49.1351 14.2924 49.106 13.9427 49.0032 13.6119C48.9004 13.281 48.7265 12.9773 48.4939 12.7224C48.2613 12.4675 47.9758 12.2677 47.6578 12.1374C47.3399 12.0071 46.9974 11.9495 46.6548 11.9687H45.2634V17.3185Z" fill="white"/>
<path d="M51.5495 15.5552C51.5145 15.1853 51.5564 14.8121 51.6725 14.4595C51.7885 14.107 51.9762 13.7828 52.2235 13.5078C52.4708 13.2328 52.7722 13.0131 53.1084 12.8628C53.4447 12.7124 53.8083 12.6348 54.1759 12.6348C54.5436 12.6348 54.9072 12.7124 55.2434 12.8628C55.5796 13.0131 55.881 13.2328 56.1283 13.5078C56.3756 13.7828 56.5633 14.107 56.6794 14.4595C56.7954 14.8121 56.8373 15.1853 56.8023 15.5552C56.838 15.9255 56.7966 16.2992 56.6808 16.6524C56.5651 17.0056 56.3775 17.3303 56.1302 17.6058C55.8828 17.8814 55.5812 18.1015 55.2446 18.2522C54.908 18.4029 54.544 18.4807 54.1759 18.4807C53.8078 18.4807 53.4438 18.4029 53.1072 18.2522C52.7707 18.1015 52.469 17.8814 52.2217 17.6058C51.9743 17.3303 51.7867 17.0056 51.671 16.6524C51.5552 16.2992 51.5139 15.9255 51.5495 15.5552ZM55.6718 15.5552C55.6718 14.3352 55.1295 13.6217 54.1777 13.6217C53.2223 13.6217 52.6849 14.3352 52.6849 15.5553C52.6849 16.7851 53.2224 17.4931 54.1777 17.4931C55.1295 17.4931 55.6718 16.7802 55.6718 15.5552H55.6718Z" fill="white"/>
<path d="M63.7845 18.3728H62.6443L61.4933 14.2273H61.4063L60.2601 18.3728H59.1308L57.5957 12.7441H58.7105L59.7082 17.0391H59.7903L60.9353 12.7441H61.9897L63.1347 17.0391H63.2217L64.2145 12.7441H65.3136L63.7845 18.3728Z" fill="white"/>
<path d="M66.6055 12.7451H67.6635V13.6392H67.7456C67.885 13.3181 68.12 13.0488 68.4179 12.8691C68.7158 12.6893 69.0618 12.608 69.4076 12.6364C69.6786 12.6158 69.9507 12.6571 70.2037 12.7572C70.4568 12.8573 70.6843 13.0137 70.8694 13.2148C71.0545 13.4158 71.1925 13.6564 71.2732 13.9187C71.3538 14.181 71.375 14.4582 71.3352 14.7299V18.3736H70.2361V15.0089C70.2361 14.1043 69.8472 13.6545 69.0344 13.6545C68.8504 13.6458 68.6667 13.6775 68.496 13.7473C68.3252 13.817 68.1714 13.9233 68.0451 14.0588C67.9188 14.1943 67.823 14.3558 67.7642 14.5322C67.7054 14.7086 67.6851 14.8958 67.7046 15.0809V18.3737H66.6055L66.6055 12.7451Z" fill="white"/>
<path d="M73.0859 10.5469H74.185V18.3728H73.0859V10.5469Z" fill="white"/>
<path d="M75.7136 15.5553C75.6786 15.1854 75.7205 14.8122 75.8366 14.4596C75.9527 14.107 76.1404 13.7828 76.3877 13.5078C76.635 13.2328 76.9364 13.0131 77.2727 12.8628C77.6089 12.7124 77.9726 12.6348 78.3402 12.6348C78.7079 12.6348 79.0716 12.7124 79.4078 12.8628C79.7441 13.0131 80.0455 13.2328 80.2928 13.5078C80.5401 13.7828 80.7278 14.107 80.8439 14.4596C80.96 14.8122 81.0019 15.1854 80.9669 15.5553C81.0026 15.9256 80.9611 16.2994 80.8454 16.6525C80.7296 17.0057 80.542 17.3304 80.2946 17.606C80.0472 17.8815 79.7455 18.1016 79.409 18.2523C79.0724 18.4029 78.7084 18.4808 78.3402 18.4808C77.9721 18.4808 77.6081 18.4029 77.2715 18.2523C76.9349 18.1016 76.6333 17.8815 76.3859 17.606C76.1385 17.3304 75.9509 17.0057 75.8351 16.6525C75.7193 16.2994 75.6779 15.9256 75.7136 15.5553ZM79.8358 15.5553C79.8358 14.3353 79.2935 13.6218 78.3418 13.6218C77.3864 13.6218 76.8489 14.3353 76.8489 15.5554C76.8489 16.7852 77.3864 17.4932 78.3418 17.4932C79.2935 17.4932 79.8358 16.7803 79.8358 15.5553H79.8358Z" fill="white"/>
<path d="M82.123 16.7803C82.123 15.7671 82.8695 15.183 84.1944 15.1L85.703 15.0121V14.5262C85.703 13.9318 85.3141 13.5961 84.5628 13.5961C83.9493 13.5961 83.5241 13.8237 83.4021 14.2217H82.338C82.4504 13.2549 83.3502 12.6348 84.6136 12.6348C86.0098 12.6348 86.7973 13.3373 86.7973 14.5262V18.3721H85.7392V17.5811H85.6523C85.4758 17.8648 85.2279 18.0961 84.934 18.2514C84.6401 18.4066 84.3107 18.4803 83.9795 18.4648C83.7457 18.4894 83.5094 18.4642 83.2858 18.3908C83.0622 18.3174 82.8564 18.1975 82.6815 18.0388C82.5065 17.8801 82.3665 17.6861 82.2703 17.4693C82.1741 17.2526 82.124 17.0178 82.123 16.7803ZM85.703 16.2993V15.8287L84.343 15.9166C83.576 15.9685 83.2282 16.2322 83.2282 16.7284C83.2282 17.235 83.663 17.5298 84.2609 17.5298C84.4361 17.5477 84.6131 17.5298 84.7813 17.4772C84.9495 17.4246 85.1055 17.3383 85.24 17.2235C85.3746 17.1087 85.4849 16.9677 85.5644 16.809C85.644 16.6502 85.6911 16.4769 85.703 16.2993Z" fill="white"/>
<path d="M88.2422 15.556C88.2422 13.7775 89.1468 12.6508 90.5539 12.6508C90.902 12.6346 91.2474 12.7188 91.5498 12.8937C91.8523 13.0686 92.0992 13.3268 92.2618 13.6383H92.3439V10.5469H93.443V18.3728H92.3898V17.4835H92.3028C92.1277 17.7929 91.8722 18.0479 91.5639 18.221C91.2556 18.3941 90.9064 18.4787 90.5539 18.4656C89.1372 18.4656 88.2422 17.3389 88.2422 15.556ZM89.3776 15.556C89.3776 16.7499 89.9344 17.4683 90.8656 17.4683C91.792 17.4683 92.3645 16.7395 92.3645 15.5609C92.3645 14.3878 91.7859 13.6487 90.8656 13.6487C89.9404 13.6487 89.3775 14.372 89.3775 15.556H89.3776Z" fill="white"/>
<path d="M97.9909 15.5552C97.9559 15.1853 97.9978 14.8121 98.1139 14.4595C98.2299 14.107 98.4176 13.7828 98.6649 13.5078C98.9122 13.2328 99.2136 13.0131 99.5498 12.8628C99.886 12.7124 100.25 12.6348 100.617 12.6348C100.985 12.6348 101.349 12.7124 101.685 12.8628C102.021 13.0131 102.322 13.2328 102.57 13.5078C102.817 13.7828 103.005 14.107 103.121 14.4595C103.237 14.8121 103.279 15.1853 103.244 15.5552C103.279 15.9255 103.238 16.2992 103.122 16.6524C103.006 17.0056 102.819 17.3303 102.572 17.6058C102.324 17.8814 102.023 18.1015 101.686 18.2522C101.349 18.4029 100.985 18.4807 100.617 18.4807C100.249 18.4807 99.8852 18.4029 99.5486 18.2522C99.2121 18.1015 98.9104 17.8814 98.6631 17.6058C98.4157 17.3303 98.2281 17.0056 98.1124 16.6524C97.9966 16.2992 97.9553 15.9255 97.9909 15.5552ZM102.113 15.5552C102.113 14.3352 101.571 13.6217 100.619 13.6217C99.6638 13.6217 99.1263 14.3352 99.1263 15.5553C99.1263 16.7851 99.6638 17.4931 100.619 17.4931C101.571 17.4931 102.113 16.7802 102.113 15.5552Z" fill="white"/>
<path d="M104.719 12.7451H105.777V13.6392H105.859C105.998 13.3181 106.233 13.0488 106.531 12.8691C106.829 12.6893 107.175 12.608 107.521 12.6364C107.792 12.6158 108.064 12.6571 108.317 12.7572C108.57 12.8573 108.798 13.0137 108.983 13.2148C109.168 13.4158 109.306 13.6564 109.386 13.9187C109.467 14.181 109.488 14.4582 109.449 14.7299V18.3736H108.349V15.0089C108.349 14.1043 107.961 13.6545 107.148 13.6545C106.964 13.6458 106.78 13.6775 106.609 13.7473C106.439 13.817 106.285 13.9233 106.158 14.0588C106.032 14.1943 105.936 14.3558 105.877 14.5322C105.819 14.7086 105.798 14.8958 105.818 15.0809V18.3737H104.719V12.7451Z" fill="white"/>
<path d="M115.658 11.3438V12.7707H116.865V13.7064H115.658V16.6007C115.658 17.1903 115.899 17.4485 116.446 17.4485C116.586 17.448 116.726 17.4395 116.865 17.4228V18.3481C116.667 18.3838 116.467 18.4028 116.267 18.4049C115.045 18.4049 114.558 17.9703 114.558 16.8851V13.7064H113.674V12.7707H114.558V11.3438H115.658Z" fill="white"/>
<path d="M118.367 10.5469H119.457V13.6487H119.544C119.69 13.3245 119.931 13.0538 120.235 12.8734C120.539 12.6929 120.89 12.6116 121.242 12.6404C121.511 12.6256 121.781 12.671 122.031 12.7736C122.281 12.8762 122.506 13.0332 122.689 13.2337C122.872 13.4341 123.009 13.6729 123.091 13.9331C123.172 14.1932 123.196 14.4683 123.16 14.7388V18.3728H122.06V15.0128C122.06 14.1138 121.645 13.6584 120.869 13.6584C120.68 13.6428 120.49 13.669 120.312 13.7353C120.134 13.8017 119.973 13.9064 119.839 14.0424C119.706 14.1783 119.603 14.3421 119.539 14.5222C119.474 14.7024 119.45 14.8946 119.466 15.0854V18.3728H118.367L118.367 10.5469Z" fill="white"/>
<path d="M129.568 16.8524C129.419 17.3668 129.095 17.8118 128.654 18.1095C128.213 18.4072 127.682 18.5386 127.155 18.4808C126.788 18.4906 126.423 18.4196 126.086 18.2726C125.749 18.1257 125.448 17.9065 125.203 17.63C124.958 17.3536 124.776 17.0267 124.669 16.6719C124.562 16.3171 124.532 15.943 124.582 15.5755C124.533 15.2069 124.564 14.832 124.671 14.4762C124.777 14.1203 124.959 13.7919 125.202 13.513C125.446 13.2342 125.746 13.0115 126.082 12.86C126.418 12.7085 126.782 12.6317 127.15 12.6349C128.7 12.6349 129.635 13.7049 129.635 15.4724V15.86H125.702V15.9222C125.685 16.1288 125.71 16.3367 125.777 16.5326C125.844 16.7286 125.951 16.9082 126.091 17.06C126.23 17.2118 126.4 17.3325 126.588 17.4142C126.777 17.496 126.98 17.537 127.185 17.5347C127.448 17.5666 127.714 17.5188 127.95 17.3973C128.186 17.2758 128.381 17.0861 128.51 16.8523L129.568 16.8524ZM125.702 15.0384H128.515C128.529 14.8495 128.503 14.6598 128.44 14.4814C128.377 14.303 128.278 14.1399 128.149 14.0025C128.02 13.8652 127.864 13.7567 127.691 13.684C127.518 13.6113 127.331 13.576 127.144 13.5803C126.954 13.5779 126.765 13.614 126.589 13.6864C126.413 13.7588 126.253 13.8661 126.119 14.002C125.984 14.1379 125.878 14.2996 125.807 14.4776C125.735 14.6556 125.7 14.8463 125.702 15.0384H125.702Z" fill="white"/>
</g>
<defs>
<clipPath id="clip0_3393_4510">
<rect width="148" height="50" fill="white"/>
</clipPath>
</defs>
</svg>
