<?xml version="1.0" encoding="UTF-8"?><svg id="Capa_1" xmlns="http://www.w3.org/2000/svg" viewBox="0 0 1476.34 723.35"><defs><style>.cls-1{fill:#70f4fd;}.cls-2{fill:#7945ef;}</style></defs><path class="cls-1" d="M759.58,529.05v-.44c0-43.7,32.67-79.9,78.13-79.9,24.94,0,40.83,8.17,55.18,20.08,1.77,1.55,3.53,3.97,3.53,7.06,0,4.63-4.19,8.61-8.83,8.61-2.43,0-4.41-1.1-5.74-1.99-11.92-10.59-25.38-17.66-44.36-17.66-34.21,0-59.81,27.81-59.81,63.34v.44c0,35.76,25.82,63.79,59.81,63.79,19.2,0,32.67-6.62,45.91-18.76,1.32-1.32,3.31-2.43,5.52-2.43,4.41,0,8.39,3.97,8.39,8.39,0,2.65-1.32,4.85-2.87,6.18-15.23,13.91-32,22.73-57.39,22.73-44.58,0-77.47-35.09-77.47-79.46Z"/><path class="cls-1" d="M915.36,556.57v-.38c0-27.4,21.39-50.67,50.67-50.67s50.48,22.89,50.48,50.29v.38c0,27.4-21.58,50.67-50.85,50.67s-50.29-22.89-50.29-50.29Zm86.32,0v-.38c0-20.83-15.58-37.91-36.03-37.91s-35.47,17.08-35.47,37.53v.38c0,20.83,15.39,37.72,35.84,37.72s35.65-16.89,35.65-37.34Z"/><path class="cls-1" d="M1035.26,576.46v-.37c0-20.45,16.89-31.34,41.47-31.34,12.38,0,21.2,1.69,29.84,4.13v-3.38c0-17.45-10.7-26.46-28.9-26.46-9.76,0-18.01,2.25-25.15,5.44-.94,.38-1.88,.56-2.63,.56-3.38,0-6.38-2.81-6.38-6.19,0-3,2.06-5.25,3.94-6,9.57-4.13,19.33-6.57,31.71-6.57,13.7,0,24.21,3.57,31.34,10.7,6.57,6.57,9.95,15.95,9.95,28.34v53.1c0,4.13-3,7.13-6.94,7.13s-6.94-3-6.94-6.76v-8.82c-6.76,8.82-18.01,16.7-35.09,16.7-18.01,0-36.22-10.32-36.22-30.21Zm71.5-7.51v-9.38c-7.13-2.06-16.7-4.13-28.52-4.13-18.2,0-28.34,7.88-28.34,20.08v.38c0,12.2,11.26,19.33,24.39,19.33,17.83,0,32.46-10.88,32.46-26.27Z"/><path class="cls-1" d="M1145.22,556.57v-.38c0-27.4,21.39-50.67,49.73-50.67,16.14,0,27.02,6.19,35.65,14.07,1.13,.94,2.25,2.81,2.25,5.07,0,3.94-3.19,6.94-6.94,6.94-1.88,0-3.57-.75-4.69-1.69-6.94-6.38-14.82-11.64-26.46-11.64-19.7,0-34.72,16.7-34.72,37.53v.38c0,21.02,15.39,37.72,35.65,37.72,11.07,0,19.89-5.07,27.02-11.82,.94-.94,2.25-1.88,4.13-1.88,3.57,0,6.57,3.19,6.57,6.57,0,1.69-.75,3.38-1.88,4.5-9.19,9.19-20.27,15.58-36.59,15.58-28.34,0-49.73-23.08-49.73-50.29Z"/><path class="cls-1" d="M1258.37,452.46c0-3.94,3.19-7.32,7.13-7.32s7.32,3.38,7.32,7.32v72.02c6.38-10.51,16.51-18.95,33.21-18.95,23.46,0,37.16,15.76,37.16,38.84v53.86c0,4.13-3.19,7.32-7.13,7.32s-7.32-3.19-7.32-7.32v-50.29c0-18.01-9.76-29.27-26.83-29.27s-29.09,12.2-29.09,30.4v49.17c0,4.13-3,7.32-7.13,7.32s-7.32-3.19-7.32-7.32v-145.77Z"/><g><path class="cls-2" d="M604.74,337.6c0-44.92,26.68-68.07,66.43-68.07s66.43,22.87,66.43,68.07v69.97h-25.86v-69.97c0-29.13-16.06-44.11-40.57-44.11s-40.57,14.97-40.57,44.11v69.97h-25.87v-69.97Z"/><path class="cls-2" d="M1032.2,423.63h26.41c6.26,15.52,22.05,22.33,41.66,22.33,27.5,0,45.74-13.07,45.74-48.19v-15.52c-9.26,17.43-28.04,27.77-50.64,27.77-34.85,0-68.07-23.96-68.07-69.7,0-40.84,29.95-70.79,72.42-70.79s71.88,28.59,71.88,71.88v55.27c0,51.73-31.58,71.88-71.33,71.88-32.94,0-58.81-13.89-68.07-44.92Zm113.81-83.32c0-27.23-18.51-46.83-46.29-46.83s-46.29,19.6-46.29,46.83,18.52,45.47,46.29,45.47,46.29-18.24,46.29-45.47Z"/><path class="cls-2" d="M1206.44,340.32c0-40.84,29.95-70.79,72.42-70.79s72.42,29.95,72.42,70.79-29.95,70.79-72.42,70.79-72.42-29.95-72.42-70.79Zm118.71,0c0-27.23-18.51-46.83-46.29-46.83s-46.29,19.6-46.29,46.83,18.52,46.83,46.29,46.83,46.29-19.6,46.29-46.83Z"/><path class="cls-2" d="M559.05,220.94c0-.45-.02-.89-.05-1.33v-.56h-.05c-.77-7.29-6.45-12.07-13.86-12.07s-13.22,4.73-13.82,12.07h-.04v1.25c0,.16-.01,.31,0,.46,0,.05,0,.09,0,.14v186.67h27.77V221.78c.02-.28,.04-.56,.05-.84Z"/><path class="cls-2" d="M916.91,219.36l-.03-.27v-.06s0,0,0,0l-.02-.2c-.73-6.86-6.07-11.35-13.04-11.35s-12.42,4.36-13.03,11.2h-.05s.16,78.08,.16,78.08c-9.8-17.43-28.32-27.23-50.1-27.23-35.12,0-68.34,25.32-68.34,69.97,0,42.2,29.95,71.61,72.7,71.61s71.61-28.04,71.61-71.88l.11-114.21,.03-3.62c.02-.26,.03-1.63,0-2.04Zm-72.03,167.79c-27.77,0-46.29-19.6-46.29-46.83s18.52-46.83,46.29-46.83,46.01,19.6,46.01,46.83-18.51,46.83-46.01,46.83Z"/><g><path class="cls-2" d="M974.77,216.18c-8.23,0-14.29,6.06-14.29,14.29s6.06,14.51,14.29,14.51,14.29-6.28,14.29-14.51-6.06-14.29-14.29-14.29Z"/><path class="cls-2" d="M987.89,273.07c-.73-6.86-6.07-11.35-13.04-11.35s-12.48,4.41-13.05,11.31v1.22c0,.15,0,.52,0,.56l.13,13.79h.01v118.98h25.87v-118.87h0l.11-13.07c.02-.26,.03-1.63,0-2.04l-.05-.53Z"/></g></g><path class="cls-2" d="M437.45,224.37l-130.97-74.09c-4.18-2.37-9.42-1.88-13.11,1.2l-129,72.61c-3.63,2.04-5.89,5.9-5.89,10.06l-.39,146.5c.08,2.85,.54,13.27,6.37,16.91l130.72,73.41c1.73,.97,3.69,1.48,5.66,1.48s3.95-.51,5.68-1.49l129.9-73.15c4.3-1.82,7.07-5.99,7.06-10.67l-.15-152.72c0-4.16-2.25-8.01-5.87-10.06Zm-106.34-11.89c-2.68,1.54-4.59,4.04-5.4,7.02-.8,2.98-.4,6.1,1.15,8.78l89.04,154.53-115.06,64.79-97.87-54.96,163.24,.77h.1c6.35,0,11.54-5.17,11.57-11.51,.01-3.09-1.17-6-3.35-8.2-2.17-2.2-5.07-3.41-8.17-3.43l-185-.87,.24-128.46,87.93-49.49-71.56,124.3c-3.18,5.53-1.27,12.62,4.25,15.8,2.68,1.54,5.8,1.95,8.78,1.15,2.98-.8,5.48-2.72,7.02-5.4l87.06-151.22,115.11,65.11,.1,102.91-73.39-127.37c-1.54-2.68-4.04-4.59-7.02-5.4-2.98-.8-6.1-.39-8.78,1.15Z"/></svg>